<mxfile host="app.diagrams.net" modified="2024-03-13T11:34:39.435Z" agent="Mozilla/5.0 (X11; Linux x86_64) AppleWebKit/537.36 (KHTML, like Gecko) Chrome/122.0.0.0 Safari/537.36" etag="6YdxHQXqa5qbkDVMiMU4" version="24.0.5" type="device">
  <diagram name="Page-1" id="Ax0IHZ-DXPF7lXMWGPXb">
    <mxGraphModel dx="1434" dy="878" grid="1" gridSize="10" guides="1" tooltips="1" connect="1" arrows="1" fold="1" page="1" pageScale="1" pageWidth="850" pageHeight="1100" math="0" shadow="0">
      <root>
        <mxCell id="0" />
        <mxCell id="1" parent="0" />
        <mxCell id="yg5Dbc8WBimCiFoJ_i8Z-41" style="edgeStyle=orthogonalEdgeStyle;rounded=0;orthogonalLoop=1;jettySize=auto;html=1;" parent="1" edge="1">
          <mxGeometry relative="1" as="geometry">
            <mxPoint x="255" y="189.5" as="targetPoint" />
            <mxPoint x="145" y="189.54999999999995" as="sourcePoint" />
          </mxGeometry>
        </mxCell>
        <mxCell id="yg5Dbc8WBimCiFoJ_i8Z-1" value="" style="shape=image;verticalLabelPosition=bottom;labelBackgroundColor=default;verticalAlign=top;aspect=fixed;imageAspect=0;image=https://m.media-amazon.com/images/I/61PZKIv6aBL._AC_UF1000,1000_QL80_.jpg;rotation=-180;" parent="1" vertex="1">
          <mxGeometry x="20" y="130.00000000000003" width="110" height="95.48" as="geometry" />
        </mxCell>
        <mxCell id="yg5Dbc8WBimCiFoJ_i8Z-7" style="edgeStyle=orthogonalEdgeStyle;rounded=0;orthogonalLoop=1;jettySize=auto;html=1;entryX=0.5;entryY=0;entryDx=0;entryDy=0;" parent="1" source="yg5Dbc8WBimCiFoJ_i8Z-2" target="yg5Dbc8WBimCiFoJ_i8Z-6" edge="1">
          <mxGeometry relative="1" as="geometry" />
        </mxCell>
        <mxCell id="yg5Dbc8WBimCiFoJ_i8Z-39" style="edgeStyle=orthogonalEdgeStyle;rounded=0;orthogonalLoop=1;jettySize=auto;html=1;" parent="1" source="yg5Dbc8WBimCiFoJ_i8Z-2" edge="1">
          <mxGeometry relative="1" as="geometry">
            <mxPoint x="480" y="185" as="targetPoint" />
          </mxGeometry>
        </mxCell>
        <mxCell id="yg5Dbc8WBimCiFoJ_i8Z-2" value="" style="shape=image;verticalLabelPosition=bottom;labelBackgroundColor=default;verticalAlign=top;aspect=fixed;imageAspect=0;image=https://upload.wikimedia.org/wikipedia/commons/3/38/Arduino_Uno_-_R3.jpg;" parent="1" vertex="1">
          <mxGeometry x="260" y="130" width="110" height="110" as="geometry" />
        </mxCell>
        <mxCell id="yg5Dbc8WBimCiFoJ_i8Z-15" style="edgeStyle=orthogonalEdgeStyle;rounded=0;orthogonalLoop=1;jettySize=auto;html=1;" parent="1" source="yg5Dbc8WBimCiFoJ_i8Z-6" edge="1">
          <mxGeometry relative="1" as="geometry">
            <mxPoint x="315" y="507.26" as="targetPoint" />
          </mxGeometry>
        </mxCell>
        <mxCell id="yg5Dbc8WBimCiFoJ_i8Z-6" value="Voice Recognition Module" style="rounded=0;whiteSpace=wrap;html=1;" parent="1" vertex="1">
          <mxGeometry x="255" y="357.26" width="120" height="60" as="geometry" />
        </mxCell>
        <mxCell id="yg5Dbc8WBimCiFoJ_i8Z-13" style="edgeStyle=orthogonalEdgeStyle;rounded=0;orthogonalLoop=1;jettySize=auto;html=1;" parent="1" source="yg5Dbc8WBimCiFoJ_i8Z-11" edge="1">
          <mxGeometry relative="1" as="geometry">
            <mxPoint x="390" y="392.26" as="targetPoint" />
          </mxGeometry>
        </mxCell>
        <mxCell id="yg5Dbc8WBimCiFoJ_i8Z-11" value="" style="shape=image;verticalLabelPosition=bottom;labelBackgroundColor=default;verticalAlign=top;aspect=fixed;imageAspect=0;image=https://m.media-amazon.com/images/I/61AEfzWeo3L.jpg;" parent="1" vertex="1">
          <mxGeometry x="513.86" y="317.26" width="150" height="150" as="geometry" />
        </mxCell>
        <mxCell id="yg5Dbc8WBimCiFoJ_i8Z-17" style="edgeStyle=orthogonalEdgeStyle;rounded=0;orthogonalLoop=1;jettySize=auto;html=1;" parent="1" source="yg5Dbc8WBimCiFoJ_i8Z-14" edge="1">
          <mxGeometry relative="1" as="geometry">
            <mxPoint x="530" y="565" as="targetPoint" />
          </mxGeometry>
        </mxCell>
        <mxCell id="yg5Dbc8WBimCiFoJ_i8Z-14" value="" style="shape=image;verticalLabelPosition=bottom;labelBackgroundColor=default;verticalAlign=top;aspect=fixed;imageAspect=0;image=https://m.media-amazon.com/images/I/61PZKIv6aBL._AC_UF1000,1000_QL80_.jpg;rotation=-180;" parent="1" vertex="1">
          <mxGeometry x="255" y="517.26" width="110" height="95.48" as="geometry" />
        </mxCell>
        <mxCell id="yg5Dbc8WBimCiFoJ_i8Z-16" value="Notification System for Lid Level" style="rounded=0;whiteSpace=wrap;html=1;" parent="1" vertex="1">
          <mxGeometry x="536.93" y="535" width="120" height="60" as="geometry" />
        </mxCell>
        <mxCell id="yg5Dbc8WBimCiFoJ_i8Z-18" value="" style="endArrow=none;html=1;rounded=0;" parent="1" edge="1">
          <mxGeometry width="50" height="50" relative="1" as="geometry">
            <mxPoint x="310" y="687.26" as="sourcePoint" />
            <mxPoint x="310" y="617.26" as="targetPoint" />
          </mxGeometry>
        </mxCell>
        <mxCell id="yg5Dbc8WBimCiFoJ_i8Z-20" value="" style="endArrow=none;html=1;rounded=0;" parent="1" edge="1">
          <mxGeometry width="50" height="50" relative="1" as="geometry">
            <mxPoint x="255" y="747.26" as="sourcePoint" />
            <mxPoint x="305" y="697.26" as="targetPoint" />
          </mxGeometry>
        </mxCell>
        <mxCell id="yg5Dbc8WBimCiFoJ_i8Z-21" value="" style="endArrow=none;html=1;rounded=0;" parent="1" edge="1">
          <mxGeometry width="50" height="50" relative="1" as="geometry">
            <mxPoint x="365" y="747.26" as="sourcePoint" />
            <mxPoint x="315" y="697.26" as="targetPoint" />
          </mxGeometry>
        </mxCell>
        <mxCell id="yg5Dbc8WBimCiFoJ_i8Z-25" style="edgeStyle=orthogonalEdgeStyle;rounded=0;orthogonalLoop=1;jettySize=auto;html=1;" parent="1" source="yg5Dbc8WBimCiFoJ_i8Z-23" target="yg5Dbc8WBimCiFoJ_i8Z-24" edge="1">
          <mxGeometry relative="1" as="geometry" />
        </mxCell>
        <mxCell id="yg5Dbc8WBimCiFoJ_i8Z-23" value="" style="shape=image;verticalLabelPosition=bottom;labelBackgroundColor=default;verticalAlign=top;aspect=fixed;imageAspect=0;image=https://www.flyrobo.in/image/cache/catalog/hw-battery-9v-with-connector-for-arduino-robotics/hw-battery-9v-with-connector-for-arduino-robotics-1080x1080.jpg;" parent="1" vertex="1">
          <mxGeometry x="360" y="777.26" width="110" height="110" as="geometry" />
        </mxCell>
        <mxCell id="yg5Dbc8WBimCiFoJ_i8Z-24" value="Power Management" style="rounded=0;whiteSpace=wrap;html=1;" parent="1" vertex="1">
          <mxGeometry x="620" y="802.26" width="120" height="60" as="geometry" />
        </mxCell>
        <mxCell id="yg5Dbc8WBimCiFoJ_i8Z-26" value="" style="endArrow=none;html=1;rounded=0;" parent="1" edge="1">
          <mxGeometry width="50" height="50" relative="1" as="geometry">
            <mxPoint x="310" y="957.26" as="sourcePoint" />
            <mxPoint x="310" y="727.26" as="targetPoint" />
          </mxGeometry>
        </mxCell>
        <mxCell id="yg5Dbc8WBimCiFoJ_i8Z-27" value="" style="shape=image;verticalLabelPosition=bottom;labelBackgroundColor=default;verticalAlign=top;aspect=fixed;imageAspect=0;image=https://static.wixstatic.com/media/a5ba95_6563659a8e4b4caf8698dc71406e0439~mv2.jpeg/v1/fill/w_560,h_560,al_c,lg_1,q_80,enc_auto/a5ba95_6563659a8e4b4caf8698dc71406e0439~mv2.jpeg;" parent="1" vertex="1">
          <mxGeometry x="190" y="987.26" width="100" height="100" as="geometry" />
        </mxCell>
        <mxCell id="yg5Dbc8WBimCiFoJ_i8Z-31" style="edgeStyle=orthogonalEdgeStyle;rounded=0;orthogonalLoop=1;jettySize=auto;html=1;" parent="1" source="yg5Dbc8WBimCiFoJ_i8Z-28" edge="1">
          <mxGeometry relative="1" as="geometry">
            <mxPoint x="600" y="1037.26" as="targetPoint" />
          </mxGeometry>
        </mxCell>
        <mxCell id="yg5Dbc8WBimCiFoJ_i8Z-28" value="" style="shape=image;verticalLabelPosition=bottom;labelBackgroundColor=default;verticalAlign=top;aspect=fixed;imageAspect=0;image=https://europe1.discourse-cdn.com/arduino/original/4X/3/1/2/312e0bcb868b6e64827a1ad92f0972fa2654648a.jpeg;" parent="1" vertex="1">
          <mxGeometry x="325" y="987.26" width="100" height="100" as="geometry" />
        </mxCell>
        <mxCell id="yg5Dbc8WBimCiFoJ_i8Z-29" value="Bllynk IoT Platform" style="rounded=0;whiteSpace=wrap;html=1;" parent="1" vertex="1">
          <mxGeometry x="610" y="1007.26" width="120" height="60" as="geometry" />
        </mxCell>
        <mxCell id="yg5Dbc8WBimCiFoJ_i8Z-38" value="" style="shape=image;verticalLabelPosition=bottom;labelBackgroundColor=default;verticalAlign=top;aspect=fixed;imageAspect=0;image=data:image/jpeg,/9j/4AAQSkZJRgABAQAAAQABAAD/4QAqRXhpZgAASUkqAAgAAAABADEBAgAHAAAAGgAAAAAAAABHb29nbGUAAP/bAIQAAwICCAgICAgICAgICAgICAgICAgICAgICAgICAgHBwcICAgIBwcHBwcHBwcHCgcHBwgJCQkHBwsNCggNBwgJCAEDBAQGBQYIBgYICAgICAgICAgICAgICAgICAgICAgICAgICAgICAgICAgICAgICAgICAgICAgICAgICAgICAgI/8AAEQgEPwMvAwEiAAIRAQMRAf/EAB4AAAICAwEBAQEAAAAAAAAAAAIDAQQABQYHCAkK/8QAURAAAgECAwQGBAsECAQGAgIDAAECAxEEEiEFMUFRBhNhcYGRByKhsRQjMkJScpLB0eHwCBVTYhYkM0NUgqLxY3OTsiU0RIPC0hcYNbNVdKP/xAAcAQEBAQEBAQEBAQAAAAAAAAAAAQIDBAUGBwj/xAA7EQEBAAIBAwIDBgIJBAEFAAAAAQIRAxIhMQRBBVFxBhMiMmGRgbEUFUJSYpKhwdEjM+HwchZDU1SC/9oADAMBAAIRAxEAPwD7VjMdTK8B9NnwXtGyYgsJmQTMIRjZqCUwswCZJQyMiL6gxJuBMjI1bWfJpmXAmHOxup4hNtpW1WngMpyFVKDg8slZ6PvTW8NSPZj4cVmMi/gqhqkzY4J9hqDdxneL7jlcRKzV+DOnoxun3HMY1a68z1YrCJS9oJDBsaVjlquOq9jOA6P4WMq20KfGNdN984Zl7zvZy+73nEdH5f1/aKtlT6iaXNuMl7kcM3XFquk2AUHbv1ORqo6rpljHKdraLccvNHky7u0JaFNjJoU4GOnQm4qow8oupElCGgZsmYJkV5CZlioIki6FKaKlUv1CjWiQa+vA1+IubPEQ7DXYhBtqa8DWV4/cbmrDea6tAsHk22cLfHzX0kvceU7UpWr1frv3HtO1qH/iMe2mn7zyXpDQtiay/nl9x3jNDg/lL9cGK9KE7fB1yU/ei3ho+tFc7F30m9H3KjTrrXq5ZZ90t0u66SfK5vC6rpx+XldrO64e7kFjdjQrLXts1o0/vGV42K0cVlfO578sdvt+m58Zvjz745NDiOjVWnqrNb9Hw7Vw7gcL0glDRxduyz876nWRx1rdvjoJr4ejN6wS7vV9m5mY9XJ6Hp78Gdnvr/ZSo9KKUo2k7STdk4Zr35Nbirids30jm/ze5dg2p0Xpb88l2K3lcB7JjFfKc+V9Ldmm8253H1PTZdePbyDZcW3K/BXvfVdxrHivXb4X58tPuLuBq6TsldWs9dPyNVUldvvd/v8AaHi5Mvu+LD572tbSW6XDd95T65rVMv4b1qbjLnpzNXB62fOxYx6m3ePJj/a1+61h8TfetVxv9wrEveX6OzMsdd7bfhwAnhTOT7mOOeXHOvy5nGYDMuT4Gjqws7PQ7KvRNRtHA5tUYxfB9Z6Pf4sfLSxnlkmuDTXhqdjGp1kFJLetbc+Jx9eNnqbnozjtXTfztV38vI6Svi8eXTlcRSptPd5r8RK+z3W+7gbPaGzEvWd734eTNVWlZ6Wtwujq6Zyhy2Mpxu9+oL9oUAxi/Qv9mStm2JgtMllUi1rraesvWs/X3vL6p6ql2nlX7MsofuTBJL+InfW8lL1t26x6xTS5I+Xn+atGU4do9Q7REaeu5FlJckcaMjHtZmTtJUkTp+kwF1YfzFadNfSv7SzUmuX+kqzkuXsAq16bXH2I19Zdr8Le8vV32FGs/wCUCjWpLnLzNdioLXVrvZsq6X0TVV5K/wAn2MsHnXS9JOyd9W33s5DEnYdL6/xjglZLVvm2cfi1yKNRijU4k2uLNVWYGl2tUtCo/owbPBo7j2/pZVy0Kz/kkvPQ8Tij28Ph4+bymER8ERTsRLFWPS898mKrYViK+hVniBbqBpMkRYlTJCwDBsEZcFYpAymZKQBhWMFE3IQbEHBgBRLGKtwr7ixTncoIsYaoVlbiGhE61wVU0ACtMOnEDKWYwKixRnc2/RynmVWk739Wcbd9pLw4mmpMu7Mx6pVI1Huaal4q/wD3WDGL9+oDoCqIxM/PvrGSkHFi3ElANsYhYcABgEuIuUNd41gTAixkN5LAloRNXVnu493EdJicwK3MMzs5b8q8uGo0N3y03pZw+/d3AM9k7R5TDYYKZr4l3CFg2sZyyu280GKlr4s6Cg3Z93gc/jU82p68PCxVYubGzQioiKh/gcR16jtSutznhISV1o8s2rr6p21zgOk8Mu06Er6ywNdW+pOm7vsyt+Jz5PDti0fSCrebZqKhbx9a8mUXI8jqXUFSQ2aFtAA2LkxsoiWhrYXIRIdIVNGLNBExM2WJRK9RC3YrSiVq5ckipViYXSjVia+tA2taJrqqK01laka6tTNxXiUqtIvkebbep/1+m7f3a+9HkvSuh/XKy/n99j2zb1D+u0O2E/YeR9NsPbG1e9P2HWM1rsJT+Mgv5kej0cFGrTqU5K8JxcZLsa+44PB0/jKX1kej7PVoy7vxF+ayvm/pLsedCrOlNO8dztpKPzWvCxoVPhr5H0D066HrFUrxtGtTTdOT42XyHzT4cb21PCHh9WpJqUXaSe+LW9Nd/E+lxZ9UenDIFNWViK7s/c9wVaSTSuTGomsumnj+Zbi+96H1G/8Ap5X+N/kqYlySve5TrY7R35cDb1KStw8/uOf2nLKtL6uxI+j6jLpwt/Shwq9Vyvo9H3cPazXONmzZUbdXu15mtizri/Nern4OOfOWtlsVu8uKsintzCWeZcd/etzLux5K74FrG4bNG1r33GPFfS4+Kcvp8e277fWK+zKjlGLfuLFaAGDwTjFJ6PkTiHYw+nhuYSZedd2txFMoTibWqrmuqomnl5cdtJtbB39Zcrmqo1XFprenc6erTXssaXaWBtqtxcX5z1npdXrwjrsHXVWEZvirNcmvxNLtPD2baur8FuRX6MbVUJ5ZfIk/J7kzrdpYeMotJLvW87Y15J+LH6OKi/ZoTFeOgWIhlduP3EUops04x+i/7OeFcNjYL1cmanmyqGSzfrO64ya1c3vPUIX5M879A05S2Ps+U5ubdCKTs16qTy6O+sVo+Z6FTX1j5Wf5qqzFvk/Iar9omHdIcl2M56BpS7QrT5S8wMq5MmdJfRfmNAZuXJ+aKNaMuzzLWT+R/rxKtanyiyCjWUly80U62bmvMuVovc4lKtTf0GgKVeT5rzNfjKzatdeZdrR7DWYpv6KXeB5d0hb6yabvZ7zmsSzoukEl1s7fS3nOYosGpxDNViTaYhmsxCNaHFekmu44WdvnzjF+LPIoHq/pTmlhkvpVY28L39h5Oz28M/C8XJ+YU6hVlILIyVh2ehyKMLEMJcN4EJtUJuWvgYEsMXSkJmXD6hhqiQVmiB1VWFMzpoBiJsQiNiCiCHBBmiix0NAEicxrywbmIiBSTLcKZNBdhkJEW5kSmVnS3TpMmtRbXcIpY0u06l9xUvZ/QDTQdwFvJkz8++qetxie4GnPQK/vAIlMGJNwM4hSYMpkuQEwZNwCbgNUtCacdbAQkRKpqBuoT9SnGy9VTXlJW9hCZWwWJvFLlJ+1fiWEz1eZHlpkZF3CS1KNMu4UsG4hUumuw0WLjZ24m5p7jUbTjZruPZheyxSqCKy4jqjE1HoVoOc829IVfLjsJK/yqGJg927KpWv4Lceis8t9IlbNicE7f3lWHg6Mr/rsOXJ4dcWnrO7b5lVR1Lc425iDyOpUgZBuJEwFSFTYwXUM0IYmbHTEswuipCpIdITIiK9RiZwHzEzDSnWKNWmbGoirUiFa6tTKVekbSrAqTgWUcN0gpf1rDP8AlqL2HknpBpWxtTtUH7D2TpND+sYV9s17Dyn0i0f65P6kPcztGa0mz4fG0vrfczv8Bul4fecPgofGU/rr3Hf4GO/u/EW9lhNW1nprY8b9JfR9uSrUl66i+sSXyo/Stxkj2bEx0t2HF7Tp3rUt1rNPtuXjzuN2seA1YN6rUmF/FcTtvSnsCGGxUurVqdVRnl+hOSvJLglJvTkcVVxOVXPqY3c2745e87VNfGqyvJLnfQ0m1cUpKy4Pf+ZZnae+28TPYVVO6jdcJJq1jXZ9TL1PLy8f3eM327k4KfqtN7ilLs7ffbibGhh2m1b1tO8o1Fq09NePmI83qN/dce/OPltNiQXrN23ac/ItyrNabilshJZ/AuzRyt3X3fQ9uHH+LKlTQrSkhG0MVZNWZrMHjLaPd2kTm9VjhlMcvdfxEXfQpVKRdrYuKS117Cu531F7Jnnjl2xu1GtArzol6pArTgZc7jvcviufx2CyvTcdn0U23GcVGXy0vPt5Gkq0lxNas1KanHg/0u41jdXu/P8ANwXjy6p4dR0rwGaOZRs48UvM5vAtcb7jvcPtSNSndK91u7WtfJnEPDZZWatrddz3eR6Pbby54zfZ+lnofoSjsrZ8Z3zRw1NOytui7tpJJPVbkdpRavvked+jXp7TdDD0ZdYpKlTirK6fqffzPRYXb0zeKt958rPzXNZy/W8xlJfW8wI37fCw275S80YROV/zewzL9bzJUX9F27yI039H/UAqVHsfmVJ03/N7GWatJ/R/1FOtTd9UvCRkVsQnyl7DXYi/b4lytDfoijXjpuQFGs+/zNPtGayybW5N/K7Ow2WIjv0W40O0MRdJcJSUf12F0PMsdPV+LNPX4m+23D16jSSSlbTcc/iijV4hGrxRs8UcxiMdKd8uiTav7DUZ28/9K+L9alDfpKdu9ZfecCjpun8n8Iacs2WCXnr7zl2z38c1i8eV3kv0aKYydI1sMXbcxkcY32nVyq6qZE6YFOoxjnoWMa2DKLmFnYGYroxQYDgFcJyJoU61G5XnA2MypXIu1YyxLAuYbEFFgJkgqzTVxvUlamWYSZWKtUoJIXVriKlRipTKhnWg1WKuMirjQZh6LZsKa0K9LQjr3uG2bNv6EIIY2LpVbmSPgPqGwQTiLpvQbGQExZLIuSBjJQEmQ6oDUZcGM9wFSYD4IVVepFOsZUjfwA22y6NPq5NP4yM9d9nF6K3c2i3CRp9mVErx4vhbk1c2tI9OPePNlDaaLVArQLFJalZbqitDR4299e43dGRpMdLf3s9mHhqKUmLsFIXORqtxWxlS0XY8z6UYd9fgW/8AFZftU6kfe0enuKe84r0i0VCODqpfI2hhk32Sll+855x1nlR2n0ftw9pzlbC5Weu7Qw6vLTichtnZS3pHnuGm9uHqMS0XsZSs2UZI51SZoGoNYqojGQRUEyQ6oLlEw1CmxMxzYqYNK02JkWJoXlCkVIFWpEuTEVUBRqQKtWBelETUiBxHSij8bhn/ADtew8s9JtG2Mf8Ay4P3nr3SyNpUP+Zp5HlnpTpf1mL50Y+xs7zwzXO4KHr0vro7rB6N/rmcVhI+tT+uvczuMJT1ZjKrCMZG6fcclj8Lecex39p2teOjOXxtLUkquJ9LuHUsSr2adKKt4HjW09nOMsr7crb0ceXej3D0o0Pjqf8Ayo+xI852xs5VFl4rWL+5957uHPXapLpxMaTRtMFiPVyP/L+Ap0t6atKLs0InLXQ9tm52fQ9Nzfc5TLzN+E4yi7qW9cVut23+4pbYwTVqi1T0ent8Nx08YqdPRJX0fYzW4WppKnNaq6S5rmjnvT7vLwTPe/Gc3L8r8mo2ZUW6+/dpqbKbstTR42g6cvbFhV9qZla1tPW7e4WPF6f1U4cLxZ/mx/bXst43COUdPDWxrZ7PnFJyjbhvT9xt8DVWVC8fiFLTlqWN+pwwzw+83+LU7NPTw+Z2RblhcmnE2Gz8IlHNbV7u7mIxC1M3u6en9Pcceq+ao1GVqkS5OmV6kTnezvZVOSK1aCZbqRFOBNvLnj81ro1iskuresZu65prh4l7pBh4OrHLF6wlfvW7zNXgKDlOKjvve/cbHpjUUaUJXam21po3qdsLuPiepwmHePsz0X4xVcJsuqlZzoUr6atpOPsPfI73+uCPmX9nTGdZs3Zb+i50/wDp1JQt5ryPpim3eXY/uPBl5rwy7m1iLDjHvBXAbTMCYT0BmgkyM2oFecipORbmilWRkU8RM11cvVzX4l7ywazGSfA5HG1Guq7M78lc63EvRnKbfqZYqdldXiuWujKOIxlS8JPg5K5z2MZvsX8iT5yXuOfxSA1lf7mcPUxbhSrSW9Sk/b+B22Ke/wCq/cee7Sl/V6vbm9rsbxYyeabfxLnUcnvdvcab4O2bPaD9YXQnc+jhO2nht77VYYHmWY0kg5QMUTekDnGOegnIHGAiBUiGMsC0KoMplgzBtnZUypWLVRCJkVVmLGTFmHWMJiQTEFMhMep6FZIYWMUTkBJkXMKmmFnCQF0aVy9Tp2KCjARNalmmLaRND+gqgxl7iYDonwH0kwYcJCUxkWA6LJFRCzgQ2QzAUwCpvQySuRTJAGmxzlqxSRkUl4gdDsjYmak61vkZr9z47xkV7r+e4pbI2tOPqRk1GV8y4bi4j04+HnylNgWKM9SvEZT3moy3dA0uPWrvvUjb4ORrdqTTba5tHp4/dY10kKnIbUKzR1rc8oscb6WZ5cE56vq8ThJ6cliIJvwTOyucf6Wf/wCNxjfzYRl9mpBt+Bzy8V2dLiK2Zt89bd5rq9O7LVGupQjJbpQi14pMRVmS9xxe39nWbZzFWFnY9J2nhVJM4vaGzbNnmyiytGxUpFurQKriccmiJxEyRZlEQ0YCWBIZIXYNEziLyjZgNBVaohLLMoiJRArzQqpEsziV5gcl0xh/YP8A46/7WeZelSh8fTf/AAvvZ6n0wp+pSfKtFnnPpSo3q0vqNeTOrNcfhl60Pro7rCR18zj8Ph/kv+ePnc7fCx1Jn5WK+Kpe453HUfWt3HW4ynqc5jqfrGFcX6UqPxlL/kx9yPPcRTs/A9U9JmFv1TXCnH8GedY+h6y3bkejHuw4vb2zt9SO9L1ktcy/I0VKjez56/7neVqe/gcltTB9VJyXyG9bcG/xPbw8ntXXDLSMLWyu30t/LvC2jhL+snZx1T3+HDQpzLtPEaW5Ha4+79D6Lm68LxZfWfVralJVVq7S4cOBq8Xsucd6a9z7vzsbTE4N3zwTWt9Gh9Ha38Tza0fhqTdZ5vT452zPeGXiZe1n6tBCq7WbNzsrZWb1mvV9/wCu4u4ahSdpKMG+f5X+42U5K25Ilrv6f0X9/LGyeO/y8NZiF+BrKkL6m0xRRluMvo3y1mIRWkX68CpUpmK4ZK7iKqRLDiBlMuOU3FvYFC03LclH2mp6eYq9SEPoxu+xzd/YrM6HZlKyf67Thdv4rPXqyW7O0u5eqvYjtg/O/Ectanz8vr79kXGZ8Bh4fwsZWj4SXWeGsj62prf3nxj+xHjE6danvcMXGbXKM6WVebhI+0ob2eLk/NXzcb2hkHuCpEIKKObQgGGBP8AEVSniJFytvKNcyKNdmvxDuX6zNbXA1mMq20OM2tVzSh2xlpw0W863H1bWXNu3grnGbTrq8WuFKVu/cWDksXL1bc2n7NxpMQzbYlGoxT3lGoxj0fdL3Hnm0/8Ays777v8A7mzv9ov1ZfVl7jzvpXXy4Nvw82dMPMc8vFeY46V2Dh4iLkKdj6U7PC2CYE2UeuYvr2Bb6wJVUa/rAlXQNVsOtRLma9YlDY4gJqrSRiAhjA1VQNfMM0VqiG1WuZUqSClzFtBOREjDcCTEgmIWjgMFwGxiWMhUQ40goUi3SglvFZqadOxM6gpzu7GwwmAvdvRcXyKNXUxDvZDcNs6ctW8q57/cb1YeEFpFN2+VL7ktWjWVK3bfs3L2WJsf0AU5jFIq0XqWozPgvpCSCiwEYwHoiINzLgTJkXJUgAGQYUFvFU5DLgYzCESgLOzJWmu269jNx+JpsHL1o95ukzvx+HHMyDGUnqDEbSZ1jm21DcaTFS1kuU2l3NXNxh3oazaVG0pPm0/Yeni8rGvqsSx1RldyN10Ac96QlfAY5Wv/AFSvp2qDkvJxN+2aHprQzYPF7/8Ay9T/ALf0iXwbN6O182Fw0tPWoUpf/wDNE1pa7n38Cj0DrZsBgpcfg1NPwjFL3e82laRzdSJq5r8ThEy9VRUrVrK5NLHM7d2fGMbnJzRvOkW0JSfYaKx58o0XcVIdUK8kcqAYqSGyQmSExahbQuTGsBl6UJFVB82IqHNogRUiPaBlEDmulsfi49lWPtOA9KOE9eg+yS9qZ6P0qp/FPT58PecL6TqX9i/rfcdfZHIYah8XF/8AFh7TqcHS1NThcN8Tf/iwOhwMNWSgMVRuc5tGjZnV4ije5oto0NfA5q5np3SuqXbSS9upwO09lpttb0tD1DpXhLqjp8z/AORx2JwzzPuR2jDzmpRd/A1uKwaacXuat+Z1m0MDaUtDn69HVm4ODxWHcHkfDc+a5+d14EYGbubzpDsvNHMvlR93FGljUSVz6WGXVi9nFyXGzL5XbaTwvKzE16an8pa9m8Zs3FZlYZVpq5l+048sPU4S6l+e2qqbBh81vxWguvsSSV4yTfJXT/XebppFPG41Q59iDhyel4sJbd4z57/2aCTqQ0d+euof7xXFeRapbRjN7rPk7WKm0cKt6WnGxXx7c+OXPiz6sZ533A6yluf4i6yKcK+V6Gyq0t/gzGWL1en5/v8AHd8qagMjSHqmFGFmZd8vwzZsqmSnKb+apP2WXtPMpTvrx19p3HTHGZaShxm/G0dfJt2KXo69H9XaGIhSinGm5JTqNNRjHik9zn2bzrvUfjfWZdfJp9L/ALFnRadKnLFSWVYqrGNNfShRTWfuzymvE+yMu88p6GbEp4eWEw9KOWnRhkguxJXffM9YW9954c7uucmoKlEZFAQGROVVlhUxqBqEFap+tChXL1UpYgDW4k1uIZs67NdiANJtPfHsvfuynE7S3Lhalp5nabWmknzyyOK22+fCnFIsHKYrdbiaXEm8xadlc0uJKNHth2hP6rPLuneIthqcHulK77o6teKseobcfxc+48f9Jle0MPHmpv7jvw+XLPxXCVa3IBTFzYLke94mwpSj2BdVF8jXKZPXENL7waA/dxVhiWWaOL5lASwPeJlhWbOGJXIGckNG2rlQaIUjZKIMojRtr8xjZdlRXIRUohVUwOcQDCssYYYFFAdTZXDUixKu2SBvfQVSTeiHyhYVFrDZY62u/Lz7Bvwy93e/Yt3595qalXkTRRBtZ466XAVONtUDCi2jJTy8Qun7/KQ33gZST8++gZOQyMhFgos2HKROYSw2A1yBYFiJyAahiYiI1MAjCMxjkAdN6rvXvN5CNtOWneaXD4CVSUYQlaUtIt6pS3q/Zc2tGnUSy1bdZHSeVWTfPyO/F7uOa7CRZoRKFIuUmda5tnhNwG1ael+wjCMzaEtD08flY5tYuOZ03L1lFTiuz51wZPQDE0fjVJWu4NXtwvcmUTspchFefqTjwlTnF8bqUZXS7Vow6jMpb14+5695jIcl6KaubZuE4ONNw1/klOHmnFnQV2cj6HZt4FwerpYzGU/s15NX+2ddikYehXmU665ltsrVo3RkajF7LjJbjnsfsVrcjsZIp11czZtY88rRtoKOm2vs5atLU5ypStc89x00rSFNDZRAaIEVGLHSiKcQFOIucBwDM9LW1eURbQ6TFtGErT9J4XpS74+eZHEekiheFF/zP3HfbdV6U+5P2o4/p/h/iab5TXtVzpPCOZwsP6vLsqRb7ro22FhqVsBQvh6nevejZYanr+uwxk1Ezpmlx9H1kdFOBq8ZR1RlWg6S0/UpPlF++/uORxNHU73b2HvCn3NHK4rCnXGjk8RgvlXW847aOAyyl7D0jFUDQY/ZqlftLEefVIa/rVHH7U2blqfyS3dj5edzv8Vg7OS5Gmx+DUotPw7HwZ6uPk1VmWq57D4fLu0L9OVzW1qko+q96481zMwVdpnus3Nvtej9T9znJfy3y2NSJzu26DunwOplZo1WPwakrPhqteJxx7P0XrOL73hurverHP4TBXkveX9p00lbi+0qzpWdmtfvAnROlflseW8eOXHrvfKg8MtO9G4nH7iMLs750t/AdWhvscsu76/oOC44ZW+9a/ESaehlCTu3yTQyq9Hpd8O83nQ3YLxFelSS3tSn2RjrfxehJ2jn6zk12/R2GwvRThasMPVxEHUnKLbTk8qTbavHduseh7D2ZTo1KFOlTjThGaUVFW3aLwtzLNHC2lCPBaLuRa2dT+Po/wDMRyyr8pb1W5PWdjR/rFG/Pf4HpEY6vvOC2fH+s0vH3I75aXPLUE0GCG0QQBLQbYVVAq1SnVLtQo1kG2uqmtxDNnXRrMYgy5/ak1q/5ZM4ra+7/JHN9x1+1oWT+ozk9rfO+pEsRy2NndLsNLX3m2xTNVWRRz/SJ2pT8jxj0oweah2U3/3M9o6TT+Jl3o8b9JlRddSjfVUldcrtno4fLz8rhJUWBJGzjhW+HmPhspLWbSPa8rRJDqeCk+Bubwi91+2xlXF66KK77mWlGlslvvLEdk236BLaDvZtvu0JxOK1W56cczfnmV/JFjKzS2M97ypdrS+8xbOp8asPB39xXpZW07X8l9z95DfZ4a/iaRZ+DUr/ANo3blF/ekgnhaWmtR8X8lW7tSipjpSdwbWZUaa3Zku233XNdi4LmizVm9OOhSxFNvgDcV5U1zE1sPbW9wpp8gagbJMMMMLGBRRCRfwFK3reQSrNGmoL+b5z5Ll3lSvruCxNfW19OPaHTi3okTbNVlSLNCCIqNQ36vlwIoybdyVqL7fglyNPjq15abjZ4mpaDfgaRkxbf0LxlqNbApRQxo+E9qLkIy5jNbBORmcW2ZcbDZMGc9AXUBGw5SGIrOQ6nIBtwgCblFjCVmpRa3pprvudTtuperNtJN2bs73dlqcc6luNjfraPWJS3O1n4aX8Ttx32ccxRepeolKCL1I7ua9hOJm06nqpd4OEZm0KfqrXd7ztxeVjnavyl3MBh1Y+suWok7tFzQEZ2t4EzmByfd7wjgvQ+3FbTp8IbUr6clOMKi822dpimcZ6N6OXF7bhr/56lUS5KdBfemdjiZamMXbaq5inIZUl2CZoxV2Q3vKc2XJyKlYxbpVGurmh2xgL6o6CoyjVje5m6qxxa4g8S1jaNpMrHBoibIlENyFSqADJlfOTVqCpSSQgyYuTAlUFVJnOhG1I3pzX8v5nMdNIXoRf80f+06rEQvGXczQdKI3w6+tD3G5Rodl0P6tUfb+ZYoR1/XJD9iUP6vU7yMNR18mZsahs4GvxNPU3Kp3ZXxtHUwrn9tx9SHic3icOdpteh6se/wB5zOKpmpU25nFYc02Kw286rEUHc1WLwx0Tbh9o7OSzNcUcjXw/M9LxWGucltfZbTk96Ltlwe2tm3WZfKj7Vy+81VFo67E0Tmdr4DI80dzeq5Pme7jzviuuOXzZh8ZbTffQbWpXNTTi7m8w9RWVzrl5fpfh/q5j/wBPPx7NZicMuKv7ylCMYvd5u50c6SZr8ZsrW6fgY3X3M/T4XWUk+qrGdxTqeX3cSu6MoPmRXxGZ5Nz487Eefm5Zhh41fYqMG5OS+Qt34nuPoQ6JuMHiJL1qukOah+bPOOgvROWKrKlH+zhZ1Ja2Ud9u97j6n6L7KSypJKKypLgl3Gc72fkPV8tt+rm3g/jI97C2fhv6xR+umbvHYC1Rd8reZQwNH+s0/raHntfP7aembMpWxUPq39h3Jx2z1/W4/V+5HZqLOdQaiEBfcMMrpAqoOE1AaVqhRqmwqxKNZBprq5raps65rMSErmduv5X1fe7HJbV3z7or2XOs21G+b6q07cxym24/LX8//wAQy5fGUbGnxMTd4138DTYhFg5npKvi7c5JHi/S/FRliJStuUYfZSXvPY+muIUKEpPcnf2ae0+d8dinKTfNt+buezgnu83LfY/E4zd4K3ZYr1K+62/3eJXnBj6FknZXPVt5iKlR3GV6L0JVKTe6w+rSXFktjelWja46q0BTsuFyZzv2GdmliliXbRA/CXyKjT5sCSZN/JdLLrO+lkGsYr6tFHq3yCjRG6z0r88QuYurV7SqqPMOSQ3TpQqV+JksL3EyxKRXq47l5l7rplTC23tLsFVaVuNxcqje8xMoZSjdlytNWSXAThY8QqN5SJU1s2nSurkVsc4qy0fPs/Vh+IxCgsq3vjyNPN6kiyCUrsvYRmvgbGjpYXw0tYyF6b8GaU6FU/Vbe7KzU7PwSnJK9k769xMfA/oHwsy1FmvplynU/I+Hp7WSepkmY5aksghGZd5hNt4EJGIExAE0FFgRZLiXYdGYaqCQs5qCasjoMHRtGNtzVznI8efLedBhMJUpwhGeW0lmhlk5K3FO+qknw3HTj81xzW7F+gVMOi3RPS5rWG0DxWsX3oXS3jMU1lfHd4HTj/MRz1WJVqMs12VJ09T0ulJqIyLDmxcybZcF0ReXa22Y84YGrbvjUi342OyxKOQ2NDLtrH/z7Pwcvs1KqOtrSMzs2RIVVDnVKk6xzy8tyBqop1GPnVK9SRmzbSrVmUasi5XkUqzMWaGk2vh76o0czqcVG6aOYxeFszlZpuKzmLnLeHVQEF7mQVZleTLNYrTYgGcxWcOowJHOia79V9zNNt+jfD+MDa/gyhtmH9WfcveakGu2BS+JqLtfuAhH1vBFvo9H4ua/W4S6dpa8hau1yjHUr4ynqW6cNxmJpnM20u0afqx7znMdD3nZbQperHdvOdxeGKjm8RSNTicKzp8XRV9xqMTR7DpsctXo7zUY3CJ3vyOsrYezZp9oYcsR51tnZ7i92hocThlLRpWPQ9oYHMtTkcbg7M74004GeGyScZeD5oJ1vI6Pauz88baZvmvt7TmFJpuMlqtHyPZhnK745LlDEW36x9wjG42Sa5e8mWJSQiG0IawlxFxfoPS+vuP/AE8729r8hY7Fxy5lrJ7kufAqYDByqyjCEXOrUkopb23fRFWnTnCbk926KerSPe/Qd6P3TrU8VWXryj8XF/NT+e/57GMuzz+s9V13btOgfo/WBwsabt10/XrS45uEedorhzO+6N4bxs0xm0KF/brz1L3R7Danlt2+Bbbd1odv0LVYfVk/aaPCw/rFP651XSXD2rR+pL3nPYCj8fT+sZrL0LZkP61Hnl+47SEWclsp3xKat8n7jsKaMVdB6sywUoEqBGgCqxYsV6gCJlGuX6pQrPeBr65rcUbLEGrrhK0G14pJPm0jjts/OfOb/A7LbG6P1kcPtPVt/wAzCNDi0avEU95tsWazEF2PPPSrB/BWl86pBe/TuPDcbhlTl6+mm7e/I+hum2zeupKndrNJ68mlo14nzj0n2fOlVlTnfMnvtv4p+Ksezhryck7qtbaEb6Jv2FujteKXybGkMPQw39KspaoKbOfjInrXzfmY6RtZoG6NZm7TM3aXQ3NON+AawppoYmS4hVMbJ8TNx/UbWpJLiinVxyKDZBqTQsTxbFyrNi7GWLoY2YOwuCnN2jFyfYdVsfoO9JVWvqr72LZFc9snY1StJRhHfx4Jcztek3QinQwanFZpxnHPN8VLSy/luvO50ex8JGNlFJJcDadLqF8FX+on5PT3nHr7r0vFKmiS42LWFp5Y3Ao0M0r8FqwMdibuy3I7ViK9SV9XzKtQfNiJiKKhvNhhY3ZrqL1NnHEZFfjwM0N2piko5Vve/kkVNlRWbXdYo1J3d+LO+9C/o6r7UxscNRsnkqTnOSeWEYRdrvhmlaK5s1JqD90YRHWFxeoxs+G9orguRjBaM6DIsyDBgZFEEmX9xiMAiAdwZBIugaMiCpEwkaBUtJX5HTYeM5QUn/ZJtU0/m8ZLtu9TlHI7DA1W8NBK+XrJ66b1o0dePzXHNNKRdw7KcS7QR6HNYhvG143hK3DXyExepYz2T7jWPkc1iolaoWa8tX3leR7Gt7VpC6rQ2URU4mBw3W5duv8A4uy1pz6utp5Zjrqkt7OI6QQcdu7Mleyq4LGUu9qVOUV4arxOvqpxbvzJO7pAVolOoWZT0KMd7OeXl0LqoqzZaqsq1ZGbQiqynUkPqzKlWrqYtFfEVDXV4ou4ioa6qznRSxFFFKotC/iJaFKojK7a+oV5QLNZFeUg0VKAA6TENmbBjRT2n/YSXYveXStjl8TLufsZYlUOjdL1Z9uj7dNCK8PW8Cx0bSyzMxMfW8CWEFRhuHYmmRh1qi3jIaHNWqxtNZI95ocTROlxNP1EajER0KOfxFDU12Iw+r5HS4mle5rJ4a6ZuDlcXRNNj8PbU6nFYeyv4GvrYdOLujQ4yth735Gg2rsxPU7XFYVLhvNTicOXY86rYa1zRba2Dni3DSa1Xb2Hc7VwF9UaiFLU6YZWdx5PUrPNZ3TW9Pgx1TAwcXJ6VF8h8nzO86RdD1WWeCSqR1T+l3gdD+gk5Sz4iNlFrLC97tbnfl2WPbM5Zu+XSZLvo06ByqSpVsSr2acKfjpJ/gfR3RjZ3rQlpbLZLlbl4HEdH8NecfI9P6OUNInkuVrlnlbe7ZYuirPu+8s7Bp6lvHYT1G+xAbGp6mWWk6VU/jo/UZoNmUf6xT+sdN0mpfHr6jNHsiH9Yh3slWO42RSaxL+qzrKZzmx6fx7f8p1EImK0AFoaRJEC3Er1EWpiKkQKlaRSrou1jX19QKFeRq65ssRI1uJA0e1uHJavwOExsve2dxtLEaNdjOHx19O4I0uMNZiEbPFo1tUDntsb4d9zhulnR6niJuNRblo1o0+Z3O1vlR7zl8er1ZeC9iN43Xhi4vJ9s+i2vBydL42K5aSt3cTjsVgpweWcZQa4STT8mfTey6et+2x12P2PSqf2lOE/VS9aKenfvPROb9HK8fyfGLRFj6M296LsFOTtSVP6ja/I5qt6FqEpJQqTjfufvR1nJKx0V4xYyx6rtH0OQhJxVZu3GyNbU9Fa4Vf9K/EvXE6a88sZY79+jH/i/wClfiNo+jamt85PuSQ64dNed2GUcNKTtFNvkj07DdC6EPmZvrO5tqOEjFWjFR7kjN5ZFmDzjA9Cq0rNpQXbv8jodn9B6UdZtzfkjqHTJhSM/eXS9MU6GCjFWjFR7EvvLEaQ5URyonHe61pmAhqi903VsBXfZBecl9yYGAoalrpzh77Prv6KhLyZ0iWdnjEdINcWa7qSztHF2tYovH9h6MvLzwNUr3DqVriyxocZkTnfeDYOFK9u12trve5ePYUFSpN7ldvRJatt7rLtenefol+zT6F/3Ps+NetC2OxkYzrX+VRp3+LoKzaulrJp77nkX7Jv7PLVWntDaFO2VZ8LQmtU1rHEVIvVZd8E1dPV66L7BxsllXgzx83J21HWYPpeCGxYqA5I+c9CFExom5nAlEQCsZTDsZCpEJjMguwE2JYuUhjNQYmSpEMhsohm42DjdJwd/lKcbJ5bSWq776mpjPt0T5LTTu95s9jwVsykvVeWUXe9nulfd2WR1w8uNb6Ey5Re4pZeBaoI9DmuLeWolIux/Viwc3tGFpS7ym5l7akHnn38e41tCfqo9d9vosDOYmUhlVCGyK4Hp9T/APEtiye51MXT+1SjJJfZOtrLV+JyvpGgvhOx5P5uPa+1QmvwOuxMdXrz95G1SxXmOmV5nPLyu1atIq1ZFibKlQjUqtVkVK9izVRTqxMVpTmVKsi3VKVU50VKm4qVGXKu4p1DAp14lWUS9VKkkFLcRSRYaFWDRdtQMRS+Ln3SQ+MdQMR8iS7JBKodHIaSD2hD113E9HY2zhY93kiXwxiygtS1WWhXpIfPgcnVSrr1fE11WkberD1Cg4hFCvSKNSjvNzOBTq0y7GgxeDuvaaithNGdRVoMo47Bpo6TwOLxeEZqsThjq8ThOHtNBi6T3FHJ7QwnI0OI2f610nZ/cdvUwO4rfu26fNGpUrlcNhnc3uzcC20lvL+G2C7ZrHTdH9g3ldq1uBvbLOj2xrPM+F7HebCw3qxKez8BbhvbsdHsPC+qvECxjo+o9NHYDYsPWRc2lS9XTsI2NR9ZeIWNFtyn8f8A5GaTZNH+sQ72dRtqh8d/kNLsul/WI+LMWtOv2NT+Of1To4mj2IvjX9U3qjoZAyiLHWAlABUhNUsMr1gKdYoVy9XKFdga3EI1eJNpiDWYhAcxtSWj7mcntV6ruR1e2V8rT5pyuPp3YGjxRrK+huK1HeUMThQOW2qvXiuxs5nEr42ff9yOs2nhn1sexHNVKPxku80yu7Jp6r6x3NWWj7LI5LYuHd0/5jrp0rp9+4m1xc1tBasp4GF5x7zaYmjdsHA4L1k7O195pHNbaXxk+81VWmd/W2JBu8k222yvPZkHaSila+lr3S7yxHB1MO7biu6DOxxdJWikvlPeafGUPWa5P7ijSyw5CoGxnTFTpl2KbpGOHYWerM6obTSsqYaiO6sx0yFh+Bib/aGyOvwtait9SDS70rr3M0uBp6o7bYC9aL7Y6ePI1MteXPW3ydteDUrNWa0a5W0+41p9adMP2csPi61SpCs6M5tSaUbxzP5WnC/ZbUrbB/ZAw2V9diqk5v5LhFRiue+9336HqnLj7uXRfZ8qIZCHfd6JcfLefY+xP2M9nZr1MRiKq+inCPm4pPyPZ+g3oR2VgE5UMHSdRRdqtWHW1F3SqKVt3AzeWeyzCvhjoD6BdobQalGlKhQb1r1U4xt/KnaUnp2LtPqD0L/s97PwmKpycHiasE3nrJNZlxVOyjG3De+1nq2OnamuWtlw8twv0fxviJP6MH4anny5Ll9Gul1GEqt4io9LqHh2buC4I2OK+T5Gq2JO9WvLwNxWjojhXePpeFxylvEUph9YecNJF5ic4GXG59BMZBwZKJZEjDJS3iDJwvr3E5dRTfuHRmUTYyZmYxgCzZ9GqsvXisrjKys991rdeBqnV9hvehWP9adNtKNnJvKs3cnvV+aNYeYzl4bWHkXMOUYzvu/S4Fugz1vOtMt037inMt01oWDS7U+W+01eSxtdrxtLwNZJnrvt9FivIryGVRTloRXA+ldW/d0/obRo/wCu8PvOyxK1fezjfS/O2Goyt8jG4SXlV1Z1+MqWb79fH8zDarUK02NnMrzepKvVsmoU6xbqSKlUyuKrUKVYu1CnUMZNqNQqVS3UKtRHOilMrVC3VRVqIgq1CtJFmoIaMrCpgWDYMg0iwFan6r8fcGianHvfuCVS2JHWXcDjPlILY8fWfcwsZvJfCTyGnvRcqwKtGGpfqI5N1SqL1WUZwNjUWhSyFQhrsESpF2VITOmQaurSK1XDaG1qUytUonT2HOYvCdho8XgNWdhiaNzX1sGIORqbNTW4zC7Lvddh0kdnjcLs7WxoazA7OtFKxvcFs+zehaw+DVu5o22FwyuzSdKtg8L2b7+46DY+G9WPiVMNQ0XezdbJo+rHxCKO1aDSC2PDWxa2zT0F7Jh6y7ixGp2pC9XwsabZNK2IXezoNoK9R37TS7NX9Y+172Zrfs6nY9L4xv8AlN0t3iavZcfXf1TayRBM0LkHmEze4AJiKxYnERUApVkUcQi/WRRrRINXiEazExNxWga3ERKNHjcMnwNDidiK51FemUa8AOWqbDjqa+tsJc3fgdTiKZr6tIDzvHYC2JhG1/U18t5xLpfGS+uz07GUr4x9lJ+djzxUrzk+2XvZpl0fR3CfFJ85P2Gyqw0ZOw6NqEO97hmLvYyrSSoXZdeHskDSp6rvNjXo7jTOtNVUjfTjZlGUNP8AK7m6q4Xj2WKssLvvysBocbhf7Lw95z1Wi7vx952eLw+sey/uOcnhXd6bvxNQaaVEWqRspUbio0Cig6AM4GwlQEzw4FTqzHSLfUE9QBGzY6nZ7Ch68e9HP7L2NKW5HfdG9gWcW+BgdJsqbd2/pM6PAI1eGwyjZdrZt8JAlG9wEzdZrUqj7DSYKJtsTJKjPtsQcxjn6q+rfzHej5evVn9GKXmxe1oW0/lLfQOFqdaX63GoNx0ctatLnNL2m2rb0jVdGY2p982/LcbOpUs7mR9M0WOyC4PUPOecSmYkQl7CLgGmgoIUmTcByQMmCiF7gAlIKlMCogIsC8mY2JpsfICtKG8u7BrKNRXbSkrNrk9GVZF7o7PLWhdZk7xatfet5rHzGcvDosiTstUt3dwLVAq1IWduCLNBnredbk9C3TnexSe4sUpaFg1W15PNd8rI1VRm323iE7czTSkemLCqiK9QsSkJqxKrhfTHD/w+rL6E6M7/AFaib9h1OIadnzin5q/uZz/pYpX2bi1/wm/GLTubfB1b0qMvpUaUvOCI1ldl1IiKiLFVlecjFRWqiZxDrITNmXXFXqtFCqXahSrmMmlSZUqluoVKpzop1JFeoWKkStUZBVqITJDqjESZlYU0C0G0C0GgBS495mUyYFbYvy/MnG7/ABYzZMbT8wsdDV95L4FanEvVNxSpMvt6HIVprQqyRekirKJvQTITKJZyAyRYKUoip0y44C5wM3yNdOgivLDm26oGpTKNPHCDaOC1NhChqOhh9TQrUsLozY0KCu+4mFDR95coQ18H7ChNOn9/uNtsqPqLnqUqdPd4+42eyo+rHuYFLa8dwOx4esixtngL2R8ornWt2jG9Rml2ZT+O+172b/Gr4x+Jp8AvjvCXvI3i6LZMfX/ym1lE1mzV677jbNhqlZAGhkpgBC6hWqFmqV5xAq1UUa8S/URSrmL2GurxNdXibStEo1qQlGrrwKFambavApVImtjU16ZRrUjcVaZUrUwODnR/rVV/Rpv3Hn+Hjdyfa/eel1I/1jEPlTfuODoYff8AribZdPsij8TD9b2HiqWhfwOHtSp/VQOKpaWMtRoqNL1jZ16INKhqu82FSkIzl5a3qRU8ObV0RU6BpGknhBEtnq7fNWN3PDC/g4HOVdgwvexWfRpPidVUwgKwpocvLo3G1ru4qHRmOt35HVywpnwLsIOfpbBguA17Kjwib/4KD8ELsVMBg7W5I6fZlLcUcJhbHQ7PoGQ9UdUX8LArqnqXqKA2ODRsscviu9ooYSJdx8/i4L+b3XJRz+3Jb/q29he6Jwthqj4t+y1jW7blpLvsbjYtO2FVuO8DZ7GXqR72Px1ZJab/AGAYBqMVffbQVWbdu0g+qEMiLgMgjhoECkSmYQCzLmMmwGJ7iZS3gSZEpAY5i1IhMC4FujUH3KNOZZi9ACkx+FxTjODW9Ne3RlWTAlIs8s5eHb1nro8y5+8fRKeDknCPcX4I9ns8x6LFKF0Jih1F6FitLtjD2aNfOBvNuPRaGinI9MnZYTJCKshsmJmFc50/p5sFilzoVPZFB9HZ5sJhZc8NR/8A64t+1lrpLSzYavH6VGqvYaP0d1s2zsE+PweEX3xvH3JLwHvsbaoivIfUK9RnLzRXqIrzH1GV5ld54VqhTrFyqUKpzyVWmVKpaqlSZzoqVWVKhcqIrVEQVJCakR9QRMysKmCzGyGGmGT4+BJLW8BWz16365Dcf94vCfLXeMx61feLOwp00bBLQ19Namyp7jloVpPQTce0KsdQALiNsRJAIcBc6ZYkBMCvkBUB5igZoUqYdOIzIFThqQFCnox9J2Bit4yBoSn95stnL1I9z95rox0Nls75EfEoqbZW4Tsv5QW0pXZOy4+t4BjW1TFL134mmwMfjn3S95usR8t+JqcJL459z95LdNR0Gzn6z7jZX0NZs35T7jZtiXagkgMwcgGUC0ImWJFesBVrFOoi7URUqRMZClWRTrF+qVKsDI1VWJXqUzYVKZWnAuxrqkCtOkbOpTK7pmxwFWn6+Kf8pxNCjp4feeg4qHq4p800cbhcNp5Gts11lGl8XBfyr3CcRRNnHD2jDuXuK2LomdtNZh6HrI2FejqTgqWpdr0dSpZtRlhxNTDm3dAX8GNI1E6IHUG3eGFywoRq5UAeoNi6JHUga50DI0i+6BCooCj8HCWELqphSpOwCcLQbklbTmbzCUORr8DDkbfDXSuFZCOpcolWjEvU6YNL+FiWdovSmnzbEYaI7HVbuPYn5mRy2253vbi2dJg4Ww1PtOc2zNe1nWVl8VSVtMsfcghsVp4IjrF5Ixy/AHESswPqlbmHEGIUTiDkR+JEGTNmRkzEDcxMAZXMZNQC4AgSiQpmSmBMZalyG41ubUvQmBFV6hR1FzZMZ2ESuzwNduEb8FysbGizS7IqN002mnfTuRtqEj2/J5rO69T3DKBWpTLOHkWCrtuTyr1brmc3Ka4HR7cd4/cc7l0PVj4WIK1dFiSK9VBVHaFLNTmucJLzTOM9E9W+zcN/L1sPs1Zo7astGucX7mcN6KF/Ucv0MVioeCrSa94a06aqirIt1GVqiJWVWoImx9QrVDFdcaq1CnWRdqFOuzlk2o1WV5j65WkzNnbYr1GVKpZqlWoYCKjK8x0xFRk0pTMMciLkaSFfQC5gQvCv1x+0HqIoP1vEdj95fYa+i9WbKk9DW095sInOd1DLcLSGz3AGxDBDIaABgMblBcQFmZA8qMM0BYfAWNRkFB7wpR1BjENbzcBJaMu7Lk8q8SiplvZ0/VXiUVsalfTeFs35QnGPX3h7O3iMwjEWzPxNVhZfHM2lb5TNVhH8a/Exk03uz/lO3I2U6mhr9nfKZamzUmhMpESehjYsoioQ46GVJA1JGOoV5tFWsWWhFUzbsUqkStURcqFacSCnUgInAuzgJnAChVgKcS9UoiZ0l7zpsed4uPqYh9v3nOYTDaeK951ONopUqr4uX3mmw1Dd4e8qadLVo+rHuXuKtembecNFpwRSr0RpVXCYfUuToq4eGojpUtShDgCqJcVEBwCVRnTAdIuypCpwsGVGVAh0izKDJdIuxRnTMoUS5KKsBCnoNivKmDJFiTAnTG07oo0zYRQmjAtU6Y23o7DQLkBWGgWYUybVapAYzetPmodh4GYrfLuQRzG0VeS04r3o67HfMXJLQ5epG9SK7UdPjl668AaN000aAqyVn2htiphl9VRYcUBBBnn2MjLUmYKCYA5TIoJmAC2Q2TYwCrUBuPrRFyiBXlvLlJ6FeUA6MgHEuncFMtUmgV1GyF8VFWfeXKRS2Zic1NLkrF+keyd5Hmq1QmWKMitRH0XqVEbQ3eZzNQ6LakPVuc5Jnrx8LAuQmoNkKqBVW+pwfoyfxOJj9HHYnT603L7zvOK7ziOgDtLaEPo42Tf+eKl72F26GqV5zuWK0iq0SoqVmV3IsVkVpIxXTBXqyKlYtVSpVOWTop1UVKrLVYqVUS+BWqSKtSRYmVqhzCKhWmx9SRWqSABogxswy1GGZyGyVAFLoS9YsY7eVqStIs4wEa+ktS/TkUKUt5chIxPKinIDMTIixsSYYwcwBOQARDAmxEkEjCAIxGQQKQUSg4kxWoKZiYB1FyLOAn6q7mVlLRjcFP1fACjiJ72y3s+RTr2ehawMdSxCcYvWNTg38a32M2mJh6/gavCf2r7mcr5Vu9nS9Z9xdmyjg1qyxNnT2BpAVJkRmLnMxaMuA2RnYuUjImrIrSqBVKglsgGohEkPaEVHbcAqrEU2OmB3AKcRFano+5lxxK+Jh6rd+D9xqDz3aa+KkucvvKGGpbu9G4x0Pi33/eVcHR1XedBvJK6KtSmbSvFFScTOPcDRohwo6jYoOhHU0EVoCUi7iIgKiEqo1cVWpFuUN3AitCwZUHSFyRdlAROmBVbsKluLfUGdRoE7qdOF2FGlqPjQGdUHQdCkWY0yaNMsypgRQiNgyaSCS1AtYdisS9JFjDoq4taMJWnwkL1Y96OkxsU6j7DmaOJy1ItRc3deqjoqcpSm8yy9gDQKpYyFeqDT6qpyGFeExymedlLMkwXIy4E5jMxAIDAGTcBgDUYFyWyAMktDKaCUgUAaDcrCw6qBW/2FV9U31E5vYWCqL1npC2l9W2dFQPZj4ear9JDKT1F0gobyoLaMbxOaqJHSY75JzGJk7nrx/KFTn/uBMOUeYEw0qzOI6JSy4zakP+LRn5wS+5HaVTiNh3W1MepKznRozt2JuN+/cSjpqqKcmWqtUptmclhFRlasyxUkVqhl0xVqhSrSLtQpViNqdZlSoy1VKlUxRUqsr1B8ytUZzFaoxFRjqhXqEAyZCZBhkSyY1bEU028sU5Selkm2bnC9DMVJXdJ04/SqtQ97ubxwuXiM3KTy0UZalnEVDZT6L5HedWk+yMs3ujJvwT+8sR+D97+o3/32T+yemelzrF5cZ3cnB6lyE0dXhqlF5l1UX9F2hFt87Knp5mtn0gUZSi6NPTc8sP8A6I3PSX5yJ/ScWmlPtCzLmbiht+OvxFN34tRfl6oU+kStpQo2+pF+1x+8v9Ev96M/0iNIn2kuInbHSucb2w9P7C/+Opy1f0hST/sYJ9u7yZzy9NfZuc0dekQzQ7O6cUn/AGsJLtg4xXkbeltfDzt1c5N8pKMreEXn84nG8GcbnLjT7mJjqOClP5CVS2/I7y8aek9OeVpcxdSNtHo+T0f5nOyzy3LL4YSpAXMTMtGJhQQtBpgBNjsL8ldzEVWFQm7IBVSOo/BPUr1WPwG8BWL0kavAf2r7n7zZY1+s/wBcDW7P/tX3GJ5G5wlT1mWJzKdHe+8e5mxLmKciJyFtmchjkBOYUhbOYxTAnIi4uUgMlIVNhgTYCuAMjGYBCiJxq9R9zHxZXxkvVfcWeRx2Op/F/wCYThKWq7zYY9fFpdonCQ1XedRuKtGxUcNTZVEVHTOQWqY2jTDjAOEDpPATKkF1I3IZJFSqtSG4XWpFuaE1gRU6oVWosuOAqcQqvTpEOBbVMXUQCepJVMsuGhMYAZRpD5x0JoxDrQ0ACFMxRCRltQLmGiipiZ+r4s2FCKylDGx0QFPo/D41vkjc0leTfaarYELSkzaUAHyZVxUN5YkIxe4D6dpTH5yvRgx9zzsJuYt5E2DcBrkYmJdzFLcA5sBslgNADJkZiZIXmAZm0MjIBsTGbu07dgF2TBzGX0BuCu82LtFSp5bJpJDlvNNsTaOeLTSUopWtpdG4onrx8PNVunMat4imPW9GkNxm45fEPVnVYiOjOWxtPVnp4/ArJCqgakAzTUU6z8Di6M2tsVVJ36zBRaf1ZJW8NDta6OIxNSf72pZuOFqKL5pNP7jGXsro5opzLdRFObGlpEkV6jHzZXqRJcdEitUZTrFqoVKrOWTpFOsVKpcrlOqZaUpsr1B9Qr1DNFaoytULOVt2SbfJbze7K6Kx0lXbS3qlHSUlylLfC/OOvtOmHHln4jGWcx8tDsrY1WvLLRg5vj9GPJyluS399jtNlejmlTtLEVc740qVrX5OT4cNFc29HEer1dOKp0+EILKu+TWs3/NJ3ZYoYJrefV4/SYY973rx5c2XsiOPVKLjh6VOgucIp1HfnUlqv8pzuOjKTvJuX1m2dHVikUcTTueuY68PPLb5c1UpooVaaN3iNncjVYjDtcCUpFGpYTtHCKWvEZKl2oJRuRY1caJap0lYmWGGUYhVTG4TS9jnNp7GhPVxSkjvY4e6K9TYabuSzcNvL3syHiBHZ6vppY9MxXRCLV1v7jQ4/ohKOqv5HPoXq20WEpVotPPot19TpcFtyfyaknJc968FLM19o1ccPKPO3cWKEdxOie8al+VddhOjPWpShOlKL7Oqmu60pwf+a1xG0+iVekr2zx33ikmlx9T1s1ucZO/JFHA1su52fP8AW/uOkwHSiolZu63aJNNdsGnBrw8Ho1zz9PhZ+rpjy2eXIRa4frn3dxOY7p4ChivlJU6nCS0jLse9p97l37kuc2v0Zq0W/npX1S9ZJfSi/lLtjc+dyemyw7+Y9OHJMmlmxuGmrCJPS/6/FeJlJHldU1wsKxdQZhXv7gsIrS9Z9xTwP9o+4tVlr4FLZq+Ml3Ga021B7xkhGHlvHNkAti2ybgSlczRDkDJhPmAyBc5AJByQLAVOINxjEyYGAWCMAGJWxr9WXcywitiX6su41Bz+0oLJDvIwMNUHj16sO9h4KOqNi7UQCRYqRdwMhyGRgRGIwiMTpjQMkDUmNsDWjxKK80Je8ti8o2ENATHVYC1AoFEpIGvVtZIPDyTY0IdMmMQ5PUOEACpxDqExIqgCoBQeoTWhlOIFvTKUca9C9Lca/aEtPAANhS0k/wBcTYYdlLYy9RlyjEBtxNb2chyE1gPp2jEbEVSY5I87DDJRBuE5aACRYxEXAYwLkyYuwBVBWUbJCmwBmhVVDpkWAKlO6uMiyrSVm+0u06RBtOjkE3NN65bxW679p1NFbjkti1pU55o7925Pf3nV053t7T14eHnyW4SHQjqJpxHKRtlaqPQ5raMlmbR0d7o53asbSZ6OK+RrnECQ1yEVJM20q1t5w+161tq4K6snSrQXbeLfvR29aRwvTKVsfsyX/FnD7Sa+8mXiRXUVv17SlUL1da6/rmUK0io19VNSTWq4oycxkpCKiM12xqtWkVJstVdxUkcsptpWqlSqW6xSqS3/AK/Xcc6bU6hFLASlxUU9zd/wN1hdiO2aa03xi9G+3uLEdn597sluS3Hv4PTdffJ4+Xl14UtlYV09ItSm+Kjay5at+Zu8PslvWV9df0zY7NjGCsoLv3vzdy/J9h9THCY+I8tyt8qNPDKI14h8R0oCpQN6ZVqrKsqbLzpiKiIKVSJTq4a5eqrUn4O7XINDidm38DS18O4viddUhzNZj8LyINC8VzIjVGYjDu4h0jA2uGxRYeINRSqZd4X7z4IDdUMepbt6GKqaCOMad7eQyW0mWrG4q04Pel5FTF7Mpz+Skn7ypWxy0d9Lb+0o1dpP5pF2fW2LJbreYjq6keF+4uYXHOW8dUZDbUz27OD+bfu9/M2uyulXW+pX0vpGcbtw7U73Xdc1m1tnZ1eO9e4pbPvHejN/0a38l7b2G6t2nb1l6lZfIq8nKyduV964xNfFNb00/D8XfwTXbwOlwmLWXJUiqlN/Kg3a190otaxa33i0+8ZiNjQlH4pScFrkz55w7Y3s2ucNVa9lezPn8vpffF6cOX5uWqMZQ3A4zDONrrSXyJblJdj4NbnF6pkYae8+drXavZMpfBFZavuKeyvly7i3Vnqypst+vLuOUvdpsaHEdmE0HvDkdBEgLEkMxYIlIDMEwDAi4E2FJC2gIzC5RDaBkAswLKCACKuM+Sy5lKeP+SyjT7SjpBd4ez1qgce/k+I/Ax1Ru+BbmCgqplJHMTYGI2QFNlAyiRN9gcmQi7FexCiPcSCUVmgMhYaBGwh0htCkuQZNi7CnDUZGJGUbGJuXYhQIktUGkBxGxMyIEzIprUlFqa0Rq9pPebWpwNPtOQgt7Njamu0txVkIwsbQRZT0NCExVYN2AlqB9OQkOTK1NjkcNMJzEuQskgIiTRFwbAGpC5MkgAswEiSJAQDcm4IC6jH0MUBkuJjRswN9gajUlY6zDHD7PlaUTssLO6uejiv4XDJtKYYmlIcdWFmmzn9uP1joKS0Of6Q6a8OJ24vI1mYXVkFJcRVVndqKlWZwnpBdq+zZ8sZTXdeSX3neVDhPSZGywkvo4yi/9aMZeYsdZjN/izX1EX8XPV979pr6iKv9pWqRK9UtVWVZmLW9qtXUq1IluZVqGF2p1GXMNgVTalOPrb4xfbrdlephJKOZ2s9Fzfd+JlKo+Lb73fTlc9nBxdV3Xk5uTt2bLJOq9LX7X7O4vYbZjjvkvDU1UcdJaLQZTx1TjI+rNTw8Xe+W8jhrbhprsLtB8S/TeY0dRrYL7B1OlzJlFA6mtq9oiZexGGbNdGTUrMydRVSHO4qnVUdL27zYVklqUcRhYT1ad+x2IdSrXxiehQr6l6eyOT8ytU2RUvuzImmo0mNps106T5m9xuDaWvkUnT4mdDVRzPSzfhoLlFxd2jeUZ8BNfCp72ZGreM5ASu+ZuaWDil+RMqaA1eEw7d0WaFBJ6osuir7i3GEXwSYCYUeSH5LhdSzOraARUolCrh+02VZ6FSnFcSaa2rQlYOhVlFqUW7rXs/3W9do6tRVivGrYbR0TwyxVOWSKdT51Nuym185L5lS3ztE+NzkXQypPendK+kk07SjJfSW5vc96GVttTpSUqd8z3Ln/ALczcqjHEU3Kn8rfUi9M0vnWfzKn0H8mW57zx83B1955eni5OntfDj8Q9WVdlr159xcx9Bxk0+OsXa2iV2muDjy4FLZfy5dx8W46uq+hLvu2VJ7+8ZcVRd794yRpUSIuZchmcvAhgMlgHMRNgBTBAiQEg5EAKuQTJGWAhlTHPRlyxU2i/V8SwabHR1j3Ms4KPuXuK+OfrLuLeBRvK9gdZ6jKcSKi1G0zmJnDQCjDeOkCgFSiRlG2BmAoFoZkIcQFOIMYjWgbAY4AB3MsACQxMhQDUTUuhgp7yxlEKOo2ImFS3oGbCpXuNi1Y0e0nrY3lRGhxfyrdo2um2ox9VIfFi8treBMrmkS4oVMYLqM0PpemixETAbGRxYQEwpICxkTYgJAsCGQEyEgBIkYjJAA0EYRcCUE43BQaQKilVtJHabN+Su04utR4o6zYbeSN+OqOvHfZwyb6gxzK9Afc9DC1Sehouk2FUlZ7mb2g9DUdIJXsjtxeRzlOFtOC0MnEYBUZ221FOsjhPSxK2GjL6FejL/UjvKzOH9K8b4Gq+KcJeTRmq6jFrW/PXz1NfVLVOtmhB84Qf+lFSqTfg/VVqMROQ6qVqjMU2TUQzDYSNnOd1Tj5yfJdoWGwyk23pFb393eavbG0esdleMIv1Y9vPxPXwcPVZcnLPl1NRmM2k6ju9FwXBLh+YmBTVQ2GGoNo+nO3h8+2rFBFuFEr06dhrqFXawoFvC1mjVwxA2GLNbZdBDGJ6PQf1fic261yFWnzdijd1dqKO5LxOd2ljJSldLyHKn+mIqVLEoZHM46rXsCoUXxXvFUsWkDX2utyTMi1icVGC0u2ue40+L2nWe6VlyBeKMlMNba+c/Pia7EY1rdY3qoxb1XtsVMZgYt7iaOpp6WMv2Mf1wFfZttwiVLgY0sq48SBGtfQpU6j3MNT5EabTKA8SkUo1ZcyWBsnjtNBH74Koyjh0wF18e7OxQqbRfFlvaOzZLdu7DUKg09QLdPaL5l2jDN4mup0DYYe0eJgWMJgVFttXb0V9bL895MYypyzR3Pelx/Nb9RkMSmW4xuitbbeGyKeKoTvbPDVyS9ZRfyai5yjO8Zr6FjzGjs+dGtUp1FZx3PhKPzZR5xlw7dN6aOvwO2vg1WL4Phrld9JJ9klo+5G22/g6dZRy7nfqqj3wl9CVr3i16v8r9ZXeh4ufh6vxTy9XFyWdnC0Zb+9hyE0lZtNWabTXFNbxrZ8l7dhIlImQDRL3aQ2ZlMIZzAgX1MaZLRALIYVzGgF2IDaAQGFLaC0LqKW0Xu7ywanGQ9ZdxdwK3lPFS9cu4A3l2DJx1GIHiOyHMA2QgqgMGBBDiTYlgA0A0NYKAVYyw6UQcoC8hgTCUQFoNE5TEgJTExWo5sTFgBUGYeHaKmOwqAbORp5w9dLmzc1FvNTTheou801GymEDKGoTZUrIorViw2V6rNI+m6UgxVMZmOTArmIhMKJkEiJGAtgTICLGNAWAFSMbMaAkgJzBXAJuASDUhakS5ES+D1M6zZLThHsOPizrdnQSjG3Fa9/E78bjW6pDivTkOizuwuYbcaXb+IV7Let5uMNUNJtuKvmO3F5GnAqRCmwKjOtairWRxvpNpXwOJ/5b9mtzscTI5npjRz4TEx50p+yLZL4DdhYjNhsPL6VGm/9Nn7g6pqOgFfNgcI/+Cl4o21YzfYU6zKst/jYtVirUxMYLM1dvSKe6/GXgdOPDqy0mWWoo7bx7iupjays59rNKqzJxlb1mZhKWZ2PszHpmnzLd1YweHvqzdUUkTSwqS0JQQitiEA6gNdCmgGWIcWhcWNpVbGhNHEM2OHrczX1XxsWcM00TaVenS0NBjIuMtTdwg1xNZtjDO1+ATaj1xXq1BPXjc10Q2xTLajdFNxHwnoGmU3qRiYjIkykuKsBrpzsDOmnwLVZoVnRgU6tFbrCPgbL0pp8DHKyGl3VNUbAOoFVrgQjcaNmUtS5Rp2E05JD4MaNn2NVtLDWVzcQCT4PVcmNOkcXX2ktFFXfYOw2Dqy+a/E7ZYamtVGK7kixBwtwuTpHMU9kzWrRsKC4GyqSKti6iue6S4b1b7mtUU+iPTLV0J29bSLfCS3W7950W06eaLXYeUbaXV1OXG/aefJZdO52jC8nPc22pr+fe/tLUpKQ7Z+1evpxnuckqdXsqR1hP/3FeNxC8ufefH5senL6vo8WW4lsgwk4O8DIDMSyMpjKKy4LCcSDAFsxIlRDyAJkiIwGNkRYC8pRxi3d5sZFDFrWJZ5GpxK9c2GCWhQr/wBozYYLczpkMT1HiYPUsSscguoZlJmjEAFjHEJoB3AgiwRkpAC2QRYkDDDDAMMSCaIQETQiPEfNC6W4BMh2FkJkOwyAbVejNbQXrmxq7ma7ASvJlGybAaCIsbgXJiZjpCaxofTcJB2FUkOR52ERgGoEE3AKMTHAiMg7gChaQy5mcBckBIemBOICkA2S0RcAVIapgMEJT1I6XYNZuLTd7buw5dnR9GoO0npZWOmHlxydLRLcSnQ3FhSPRGFjDTNb0hp6X5F/DlXb1ra+H3nXDyOYqzCnIHE0bgXO9aitXkana1LNSqx505rzizZ4oo4iOjv9F+4Dk/RW/wDw+h/K6kfKTOhqnNein/ybj9HEVl/qudHXZKqvUX695yGN2vKpLessbxgly+dJ/X4Gy6YbTywjTi7TqtpdkIq9WfhHTxPPq20J3y09LaLuPd6bDU28fPnu6dJVV2jpMBgVBdvE02yacowU6lus7FZL8y3PH34s9zythVnbiKjjrPUoutcTVqkF6tjYPjYVKqvpI1dYQoXKy2sqnaKnjLcTXSQKhqUbSO2nuauPw2PXB2NP1YUNGSJt1WG2jfezYU60JJxet+ZyFKu0XKdV2NCztDYkVqmt+4oTwyjxLUe0RiJGaE1KiE1MSrbxVZlCtF8CCzV2hbcyKWNvxNf8HYUXYK2fwiwqWIK0YX3z8kNt2+whsmvj8vArraNxleg3w9glYe28h1Hwd+RPwiPFvwVxUUzIsLLtZo4qPO3ff7xvwmxWygZQraUsaFUxN9zNO2HCrYyq98ILFGqLoxzLUt0KK5WNOh9NgSpu46lSHQpkopVKGh5l08wdpvuPW5RPPfSVg7OEktLWkcsvCxzHQza+WcqcnaNRKLfJ39Wa+q93I7HHYWUZLMrZlm8b5ZeTS8zzB0mpXR6Hs3ajrUFmacqdla+tn8mSW9+rZSfCx4efHeG3q4c9XQrkTZBh8qPcxGJmZSCXFRsCxMSLjFUoy7IzGZjNGWBa3BdYSmZC7amvx2jibKRrcZ8rwNQamWs2bHCqyZrUvWfebTB6Jmr4EUt4yoLo7x9zmAqbiGHUAQEENmIm4AmJGEMDEQQYBMSGYYBlyYkEoDKj0ZXjPQdiI6CLaALlIt4VFOTLlDcbvgDiXoVdm07Nj8UtBWzVvMC0jJMgA3BjF1oB5xNaZofTVN6jxFIaonJgQUSDEzIImwKYYAtgXDkQ0BCZkiXAzKAGUVKA9oWwF2MsEyLADGR0/RvLllp69162bS3cc3CJuujUvWaN4eXPO9nW0mPgU6DLdNnrvlxPwm81PSPEpOmn86WX3G0o7zS9NMG5RptOzjVizWHka2tx8feJsFWkCepVXExKVXjfk/cXsRuKNaJlXEei+dqOJj9DF1F56o6icjlPRwlm2hFcMTe3emX+m22XQw85Rfxk7U6f15aLyV34GZN3SZXUcD0h2111apJfJj8TC30YzvJr68knf6MbcTYdHNi/Pl4XNP0d2XmadvVju7baX9h2GW1rcD7eOOpJHzMru7p+Kjo+5mpVTU2dOLe81uIjaRrTNOVQVMyMjGyslzQMENaIsa0bBkMVND1EyUR0sq02A5j5QESp9hE2OnVNng6tzVUaZdpV7ag23CcVrJlHF1VvjHzf3byvTjmd3exsOshFbvPeDbnqtfXcl7QqbRtK1am+CEPB03z70SxWsxPYUcre46WOyoc2+8U8HFbjJutFGgy1QqW7S1iqXYa+TA2UsZdamur2/MR1jCg0AmdSxkaly1PA3Wj9xUlRaJVl0b1gKlcqTm+TH4dEXqOyEW/Vh6Vy5h9kyeoOonAt7jdYaD4i6OBszY0aI01s6lh9AKlNp6G1wuDui3S2fzQ0rQU6Ema/pX0ZdWhKyu4+svw8DvIYWPIyOm7dZk6fZrF8p7U2W4O2pb6NX6yPC/q8d3L2Hr3TnoT1s3OEVF23W3tce9nnuH6OThPVWytS8mm15XXieXLj3LPZ2xq/JEFjaVLLUnHlJ+T1XvKyZ8OzVfV2xsLKBMlbjO10kBhMwy0FMwlkMAWhtkDlJlwJRklvNXi/leBsTV4r5XgJ5Gsj8p95tKPyWauktX4m0p/JOlEYYdbUTg0OzHP3A1mQyajBkSiJEWMbJTIIREiTAAMI4kgYYTYgDCUZlJATiZ6CpMLFAyZYEsvUNxQbL9NeqWhWKegOBjoBi5DcCtDIZcBoNoGRoAJqxGgVDW4PpmmMjITTY1M5sDzEZiGyImQ1MPMKbCiwCZjRhDYBozKDFkKYBpCpwGxfLxMqICqyJMKaBkgl8CjI3HRp+u+65ozb9Gn6/gbw8uOTraMi3SNfQNjh5HrvlzMp7zW9Lk+rjbhUi/DibGUtTV9NMYoUJTavZr3msfI0eIWrZkdxlSpfXmk14pAJnrqkYhlCZerlCqzDTh+gitjNpQtb1qU/NNM0HpExbq4qnQi9KEc9RrdnmvV8YxT8zf8ARqrGO08bfc8PCo9eEZK/sZxWzMQ5qdaTvKvWqVFuvkUssPCyO3p5vLdcea6jfbLaikraWRtVO5qMNiEXY1z675+2ypM1W14WaY5VQNpLNEIq0dQmU8LWsbG9wm2RQMhiRjpmmSFUGpkSphxibQXVi5YVvcMuNhiUiaZrWVNn1I65W1zWpNDCTb3NI3VPaV9LITWqsaibKlFxFzlcJtgRWo0m2pxlVxKkdqtM3mKw1zQ4rAmL2TqrYUds8/eMjtRPcczVoSXDyCoRaOZ1OhrYsqTroqqqyUw31Q6lR7Sz8BKtGpZjauPSC7S4uI7C1Yt6mpxW2XwsUobS1vfXsJTbq8RhEUFSsDhtqqSGxpsjRkNNeJt9lbST+VvNHiJWAwWI1A7uMYvcwG0jSYLH2LtbEf7l21tucPiUi48b2nKfDmlYKntBsba26NYrtGxxTOehjGi5HaCtvJa1LpvZyTRzO2ej2Z3SVpadpZW3IpCq+3qdk3LjuJ5b8+HHdM8C4Vr20mk/Fb7ew0cUdt6QKsZ04SXzZrxjJbv9K1OHjI+B6idOdj6fFd4xgQMmZGR5dPRsTAyk1CVuIoUSyEZYA2yXYW4kyLpGM1FaXrPuNrKJqKytKXcye6tbh3vNvFeqjT4Dj3m2qT9U2Jw8R6iIwrGZ9TFE1YgMKtPUz9frUwFswJtdnn+Yuc+7z/MAiGZftXmvxIv3ef5gQYZKS5rzX4sjOuDXmvyAxoJRB6xc15onr19KP2kAZDB66P0o/aRDrL6UftIBOKe4CrEGpiot2TTfYzKmprHyFpGxpS0NfDeX1uLkKeOVx+HWhXxO8s0nojAy5DZCZjkAIEwxU2B9LUR4qCCTDAzCJMEyDuEmKuSglujesMchbMpsEuzqNRXs1o9O58GApeIMSYhTIMOUhRNwMmJY5IBoJfBTNjsKpaa7Wa+oizsip66LjdVxydpRkXsOzXUpFzDs9v6uVW6280vTuL+CVbatRubeS1QrbeHz0akecX95Ze8WOVwyvCm+dOD/ANKCmBQbyQXKKXloBKZ7KpVWe8oVWXKy4lHEGF28l6ZbR6jGYqSduswMoq3PNBHObEllo0Vyp2/1S/E3vpOwL6/O93UdWvrSnFp+CTZy0sRltFcEku5ae+78T3cM7bePmu7p0mGxBep4qxzOFxbNrhsTc9krybb/AA+JTtqXHHR9xo8NVRuKFY0xa1UHZtFyNfQr4yHrNgU5XKztbVcz4YhEaNxdTDW7TR1LbxgqptBcCvkZlOga2nUdDHlmhXV9dUUp0rCZVlzG2LW+pYuF9IxT4O9y9TxEHpocnRqlyNMbTqbmeGd+FuxkSpFKlUa3MbHFvsZTqTUgUcRTLc8S+PsETpX4kqbaurZFeo12F3F7NvzNPicJLdY5aNp3PeMlUEwoNAV5aGQ+nWEYy7EYWtd2LNancG1GGz5Mh7PaLlCc1oPaAVgsPJcDcUcRbRr3lCGLaGw2jP6MWTTrKuY21r3Xca6hrxLtOrGpeNss0r2e59z+4RHC27CNbPpVLM2dLFeRp6rS4lb95cLhW/q1xFPaqi+LNJ8NvxB+Eq5F3p1NTaae5Nd5XrYt80a2liW0DOVyOkq7WxM2tFF97sc9jsY1JX0tvS1NtRg+bOe29UkpJqzvvX3mK3K3u0MVmpXvxjo/E1LsMpVL0hCPiep75vqcH5foMyTACTPO7oTCuQ4kKJnTW0tkxYCQURE2lMzOQiTQirI0+I3yNrVmajEfO7mTSqmCWheq/JKGFZsMRU08gqaE7EuWveVauMUY3fgjTT20/C+hnLsN3tDAxqb219V2Na+jVP6U/tFd7aYK2sYFn+jlLnP7RD6N0f5/tMr/AL27hdTat+IFz+jVF/S+0/xJl0Wo8pfaf4lL96vmDPaL+kwLv9GqPJ/aZn9GaPJ/aZR/ePaZ+83zAu/0bocn9pmf0ao/Rf2mUHtUj96doGwXRmjy/wBTC/otQ5P7TNY9pdoP71/mA32H2PSpvNBa99/eNnUOcltbtMo7ZSdnxA6CD1RdNfhZJ2sXpgU8U9S2tyKVeWtiyBCZLMIkwIkxNRhyQivPgB9OUmMsV8PEssMMTMIJIMJiQRchYYYgVNEtgkFGN79hiYEK1m+1Lwtf3k5gGGCmzLhjZlwesBzASYTY5EYGpaS77guYEN6YjNd3Qlc2OEiafZlbMr9huaB7fZxWqiFbS/s52329w2TMlG6tzuvAs9vqOKoV3KMW99radjZEkIw0l6yWmWco28nf2liseu1Veua3FPTQ2NV6FCoZV5H6TazdajFpxeSU7cHleRPzZwOJqX3c3+vO53fpdqWxVL//AF37aiuefOep9Pimo8HLfxJo46Ue1G3wu2U/ms1kUg6lZLcdnmdZhcZF7jc7Pxaasee0JPfuNtgsfNbpJW7PzNxz27PF4RyKcVldmJwe2nJWk1rxWg2dPib0i5TmObNfDEeRaUuRpnaZUhbqJAThJ8WCsP4l05IqzuU1QubB4VjFgGFa+NOxfoVuAmvRa1HYOhnV4yV18qL0fg9b+SIGKQxIF0WTGBYDaM6kWOhMuhPVFeu0uBYc2KqwugNbie40uMjY6OeGNNj8LbtMVdtXgF6weKqSvoL2e/jPC5fjSvc5oqU9pvdLzLjxCaKuMwqsDg9mze5ac9xF2e6nIZhcanpr4J/gXMDstRazqUu/VeRtZYmnDV2h3Je4K5/FSekrNZXvyv323C9o9JIZVeUb9iLW0+mUn6tNK27M1f2bjSKnnd5JN9yXsJprarUxrnqm7D6MZFunhorcl3ByqJEJe5KREapY66JUq4uKJXbcbfB4hbr6j+vNFRqvgbvCRlL5tv14GVmQnWNFtipfedNPDrijmdoUvWy+8zlXXwHZy9XfuZYTJWDyQTzReZvc91rb/MrKbufD5++dfX4e2P1WGiFEzMTmODsxkJmORFyAiBcphongDnJlICRNyxYw02JnpPxNnUZqcRL1ZeJVVsFu/XEu45yy+rFtos9Guj86zXCGl33cuZ3+H6GUOPWeATbwvGYTEzesJW5afiI/c9f+G/NH0DLoRh+Vb2fgJl0IofQq99/y0M2bNvBJbIr/AEGQtjV/4b8z32HQ6h/Dqvx/IdPodh/4VTzHSbfPv7kr/Q9oS2DX+jbxPoGPQzDtf2M/tA1OhdC2lGfiy/dm3gH7hr77e0xdHq71yo+g6fQrD2t1M/tfkM/oVh/4Ml/m/Iv3f6m3zy+j1f6KJ/o5X5LzPoKXQ7Dr+6f2/wAhv9CqH8B9+f8AIlx0bfO66M4jkvNAro1X5LzPoX+h1D+C/tAT6J0P4SX+ZfkXph1Pn2fRivyXmD/RevyivH8j6An0UofQX2gYdGMP9CL/AMxnUNvAH0Yr8l5gPoxX5R7ro+hP6K0N+WFu/wDMFdH8OlfLDzQ1Guzxzo5s+rT0na3DW5v5tHb4zZlFKyUVd71Z/wCxqNt7Ai1el8q2uo6YONmvWLLkUbNSae9FpHMMzAykQ2C5gTNlPFK5YmyvWYH1BSkNzCKaDDA2yYIWmFCWpkFci5jkDNgTOpcGTBjIK4BpmXACiAWYkU2EqgTQ5CZTGXFV4hLExmZB6iYRZMXZiOd27XYkvUNzh5HObAr3g+w31CofQx8ODYOQ2iU1MfQlp7PY/wAB7jguvfW4hOWZxqKy3WjJK3tTLKqJrwE7S2dkr1p8Kiptd6uDCR6Y1A13oVJss4mRUnP3oix436cq6hVw0mvlU6kL9sZp+5o8tntFPj7T0T9qKo44bCTS3YiSvwWem2145E/A+c542Tvqe3jz7Pmc91Xoktpr6Qyhtdrc0zzilteceKZYht9vhY7zLbyXN6NT2u76sv0tq7mmebU9qXWj1LFLbtSO6Wh0xrjlk9Qo7ddt3iXsPt3N8/wbPMaO2ZPfIdDaFmdU63rVHayNrhtoqyPKaG3e02GH26/pWKnU9ZpVUzJVUefYPpI7bzc0NvxaWutjW2uqOshiEWI4hPecf/SGK0vry0EVOkDvdMbOqOtxiuanqZReaLs/1p3FOhtty7hqrtvVhLlG6we1Iy0n6sufBmwgl2HLzSJobQlHRFidTrpQRVqRsayhtdveHWxd+JTqX7kpXNTLF2LtHHK33XB1LTwhUxeBvuV2bGhi7rcaL0jdJXgMBi8blz/BcPVrZb2TcItpN8FfVvhbiWTd01f3+jR4jBZZOTVmlYVRxbekdeH5eJrV0K6QTWBqTlh8TR2jT6+NeMOoo4GKtehVjNuvWqSUs0XGMU2uHH1jB4DC4N5kusqcJPRdjUXqrrXUcnHMP7Ut+UYwz+cv8XJ4bo/U0dSMoXV0pRcbrsbWvgXJ7NbXy1FLgX+lfpJq1Mt4wkoLLCPLve7dwOJ2l0wnLRwivqt39p5631RtMftaMPVTu+Zz+Lx6k7vU105ynu48PzKs9nVU9yXfr7SJcm3pyvuLLp21cku9o0jU0rtvwsl57ytVd96v3u4Trbye1ILTNF9zKGJ2xG+9eZq5V7cl4IrfCddNfAyszbN4y703DotlCnXT4WfZuNngqTe8lbmWzIY1rmbLZm1XzYqpgo668ORTwErOxh1xvd1OIrXW85PakXm3vzN513qmnxEk29Dhb5eneztmN5fFloVgqXqoa0fE5b+Kvtcf5YiyDFyGHJ0LQNw8pnUdoGTegIXVdoSplgXIAdOn2kOCKqtVehUwuCz+rdK71vuL04G3wO18PCOXqpN89GUUMP8ACafqU6lOMVqm2i9gtrYtb8RTa13NX3k/v+h/Cl4qP4hV+kVG2lF9ukVpuCD/AKQV3vr2XevwK0ttVv8AEO3K/wCRQp7aUZpKleDTu3bMmbCW3KS/u3/pL1M9Jkts1f8AEeT/ACI/edTf8It4vUV+/qX8Jvxh9xn9IIcaVl3odUOk2ltSf+I8NRi23U4133a/gJfSmnwobu1BrpnD+B7h1LqD/fU/8Rr43Ihtad9a7a/zE/04S3UI+LX4Fet0zbWlKK9/uHUqzPaObfVl5SIltmX8WT8JGvw/S2Sv6ilx5DKnTB/wV9v8ibSzZ9Tab/iTv/mFz2lK3ypd+VlZdLJfwl9r8iYdKnxpr7Reo0bDGNK2aXkw4Y23z5fZf4Ff+lP/AA15/kY+lD+gvP8AImyYqFDbmInJxjFxpp2zNP2bjYfCXaybfgRHpXLc4K3JP8hf9ItW1TV3/MG9ArUW18uXkxFatPdGTT52YdfpHLhBfaFPbDklmik+yTJVZUw0ZK7u6l9HbzNbiIWdnp2cTZQ2na7yq/DU1u2NqVJuNoxtxZzoWQkQ0YQTMp1h0piagH09TkMuIozHNhhOcmKFtBKRkMbAbIbYNRgTFhJiI1RsZgFmMzGKxDBtNws4CZATZuYCpIyEgZByoFUBbMZFgjoui0tJruOow5x/RWt60lzj7jrqL0Pdh4cV5PQZh5iFLQGjI6DRdJqLzp8GreV395qIs3/Sai3knwV429t/aaCCO88NRNRGvqsvVJaGvqkHin7SOGk8I3mbjCrTmoW0vrDMu20mvE+ZpVPu9y/M+yvS/sZV8BXVtVByXfG7XuPiWvUa05afrxbO/F7vm+rmtfqsVMRYRPEFWWJKWIxDPdjjt8Pk5pj5bKONa3MdDbklvdzmqmPaF/vRnSYPLPUT2dxhOkCfzrF2O2u255u9pMZT2zJHSYL/AEl6phttGwp7WXBnk9Lbs1xLVPpPUXLyC/fbev4bbT4FqhtKXPeeSYfpc+MnfyL1Lpa+LfmNuv3k+c/d7LhK3+7NxRaPDodKL8n3t/7FzDdMZLi+67HU1M491o4pJaDFtKP0l4tHjWF6TSfd2lqWOb4+TG9t9ens0NqwemZX4q4FepfdK3mzyvZW3HB72dFR2xm4vxLDr26eW0cu+XsBfSOKtZTfPd95z9TGxtqyvV2pGO7UrFyddPpJFcG+9h4HpHmdoxu3u1bPPq+2s+i0K8unFLZ7p1akJ1rzinCNr5L+vJX9XRc9/aZpM3uuy6mKcZSVKLWuR6xSjbjdu7uabaXpNhhaNaON6qcJSjOCkkkpL5r1vNbtOZ5p09/a5nVjkwFLJG1utrR3afMpJ6NfSlJ9iPIujdGeMxSrYqpOpZucpTbabWqil8lJvsMb32a+9m9R9QbU9PWKxFKnGllhDRqUo7luXVxdsuiWrOOx/SytF3u5X3t395TwtPN8m1uAWIg16r4rTTQ6a1C21sNm9IHU0bNuqCa3J+ByGC2jKnpaLXatTcUelFuFjNSVsoRa3W8h9fHNK3q+RrMXtnMrrQpw2m3vMtzI2vtGpyj9k1mL2jVTulF9mUvquIrV4riDYtmY6FT1KkcsuKS1fd9LuWrLcujrvLLLMr8INOPJSW/s3bzV14U5rXetL7n5/mKobbq0ZJxrSaj82Tumt1r3jJLub8QvWsqk4ys2r9wye2nD5TVu6xp9q9OYz9WVJ3+lGbdu7Mk2uNpM4/aVWU5WVV97vHTuV0ZS5/J6LU6Wx5ovbG2pGe4872dsR2um5durR02xqEoNb+4lm2Meb8Ud25pq3YVpYZWjzaIpN8S09ZSlu3JLkkkvazxc16Jt9vglzyk/imEbacjJBWBkfDr70mgwQcgMwZAE4hJdwLBTAZKPcSkBmMcwJbAaCTMuWBTQuSHNA6CtQlgoY4kEUANg2iGZAJA5A7gs0AkgWhiZjCUNgmiG7kuIIiJNgUEZqhaMsY2Rdmhk4g2Ci+0y5RCQFhjYuG8tCZStyGJ8reRVx1aXzVpx3a9xlDEK2jOdD6sWKgFmBuQAjJsyJjQAwiJrjxFeQH0vTLBXe8ZFhgwm4DZFzIydYW5BukBlGkt0CxKiTJBQGmLRxVgkC2YmNM7HYxA5jFIaVOYGTIsC5DSCkIr3toMQWUrFT6P1atNNtuSf6R6JSkcJsC0asWt7bXmdzA9nF4YqzGYVETRQ6lHU6o13SmraMeVznesN106uqcXwzJPxZpcqSOuPeNIqbjX1pF6UihWibVz/AEyjfC1vq3/Lx3d1z5K9MvQb4LWp1of2OKpxqxtuhOyU4d17NeJ9edI6eahVXOL3eZ59016LQxmzKOfKoKk49Y/7qSby1Hxyq1nbmjOGVxy/R5/Ucf3mP8nxtJlDFYovY2jJNre02rx1TtpdW3p7/E5/GYab3Rk+6LZ9rhyl8vxXq+LKb8qeMxJSliHzJq7NrcaVTwi39wr4JUW+nP7MvwPf+F+bynJv3F175g/DWiOql9GX2ZfgL6l/Rf2X+BdRmXOfNZjtea3WH0tuy+d7EayT7PY/wFy8vMz0R1nJnPdu1tWJYpbTT3M53N3frxMczFwjrPUZOxw21O0uw2nbccFDFNbizT2vJb/eYuD04+qvu9Ap7emlpIv4TpnNaOz9h57huk9uH3l6l0li3rYx0vTj6mV2tXpjLfE3fR70hybyzS7zgMPi4S4ruMg8rutO0xY9GPLv3n7vbpbScldW7wevvvZxPRfpEpZYOWr0SfFnpWweikpyzSWi8F7SvRMtg2fhr620X6bOO27gnXm3JtLdG3CK3I9d2vs1LDTjTspafZXy9e1nmdTlqvB/gc87XaYxzc+jMLWsdH0SwrjNU4q8ZtJq3Dn4D6WAzLRN+D/A7HoV0fy3qSyp7o5nZ9r1MY72dOMbXAYdQbjv5MXtuneP3nSUaMPnSo9/WwXvaNbt2jTSuquH3X1r0kvbM9N8G3KrZ7te9xFSLT3FTF9LaNLfiMLbl8IpP3SOX2x6Y8FbL8JodrVSL8rGNs2x3nXpLVpFCtt2MfkpN83wPKcb6XsD/iovuUn9xqq3pfwPCvLwpzf3Etc7k9drdIJN6teBWqbc52PGavpiwi3VKsu6nL7yjiPTRQ4Ks/8AIl72Z3E6q9o/e7e52KtbFSfG54bW9NUfm0qj75RXuuJh6cqsfk0F/mqP/wCpOqLuvd8FK9WFP50n7AJSaqO9rJ6Lfx/W48UoftB4iElOOGo5lxlJv2JI5+r6WsZKTdqer3JSS1d92YdUTK3XZ9ebDq5rJNx9l/BnY4TAKyd9fA+YPR1tbFVUp1atCjBcFGUqku7NJpeR7DsnbsI2zSlUS457PyWh78fS5Z47n84/M83x7g9Nzzi5Lqe9mOVk/jJp6j8HVtzMynP4Dpbh3a7cPrXl7Vob6jiIytZqV/ou5+d9Zxc07XC6nvrs/oHwz4l6Pm/7XPhlfl1as/TuJESCsDY+Pt+ogUEmYCkBjRDiEZcADCZMgDGYQ5EyAjMKqJhOREmGoXczMY2CEQ5GNkMwNIZGYmSBMiEiWYYIIjENsCbIuKJuZmBbMTIMIbJBZrYy3cDIyxKN7ASpkIPMAwInFM0+F2NlqSnmbT3R4I3ALgZsAMDqwpMhsyAaIIuEiDCtXLDZXrAfTFhkUKgx0EGEkpEBRJpJUipMNzAmVzyuwqRKRjjYmIYQwomMFMAzGDYINbQxQ5i5rUMhvYOlXj8luze58BciGihuEnapB/zxv529x6FGWp5xQaut/D2HodG7tystT0cd1NMVsKI3iLw6JqS1R3l2y1/THDOeHqW3pKXkcvCqml2xXuR3G1q6jSm3olCV+5I86wmIU4xcXo1p3HXC9qu1ubKs0Wqm4qORtprtpU7wmucWanodh1PBQhJXi1Ug12Zmmrcu03dd3unyPGdu9K61PCzoU5ZLTm218qzk+O9dy+43xcN5c5jOz5nxH4hh6Dgy58/7Mvaa3f07/NyvpA6C9H8M5JRxNWvwo4eu0ot3+XP+zpRXfJ9h8/8ASvozic2fCfEQSt1aqzryv9KU6iWvZFJckeg4mdryfHVvm3vbOd2n0jXyYn7HD4bw8eM6rbbPPs/hfP8Aav13rOXq48ccMP7k7yfrbe+/9Him0+l+0qLa69q3BxX4GrqelHH8a2v1Y/gdn6QMA5fG+D/E85xOGufE5sOjKyb0/a+i9b9/xzLKTfv+lW5ekzG/xn5R/AB+kbGP++f2Y/gauWCFPDnn6sp4r6e8L4kbV9O8W/7z/TH8BUuluJe+p7F+BQjRC6ovXl82bMP7s/ZZl0hrPfL/AEr8CP31V5r7KK6pBxpDqy+adOH92ftDHtapzXkZ+8qnP2ERpA160YK8pJL2+Bnqynm6Zkxt1MZv6GLHVPpFDafSjJpmlKX0Y/exNavVq6RTpxfzml1jXZHdBfzS1LWA2HGHC74t6tvt5nLLkyvj93s+54+Hvyyb/uTW/wCNVtlbbxMneStHhdtNG6ntapwlJf5m17SOrIdM649Wu9eTkzwyu5hjjPlP/fIqW2qys1VmmtU0+PM3f/5S2klZY7EWWnyvyOfcBM4Gu5jl8uzoJ+lPaT/9dX+1+Rr6nTLGPfiq7/8Acl+Jp2hsIGZv3d7k2EekWJ/xFf8A6s//ALGPbFd769d99Wp/9ioqQxQNOFz/AFRVrzfypzffOT97K06F9+viyzKJGQmkmSt8HXJeRCpFrIZ1ZOlrrVurBdEt5CJRL0nXVTqSOoLeQzITUXrvzUupJ6oudWZ1JrS/eKkaJbwmH1G06BZhGw0458vbTZYXac46KTXcbnBdMK0PnnMpjLM745ZY+MrHy+Tg4+Ttljj/ABk/3embK9KMlZS956L0V6fuTzU5W3XV9582tnV9AnWlXpwoxlOTkvVir37+xc3oe/i9Vb+DP8Uvtp+f9Z8J48Mby8V+7ynfql1Jrv30+ydgdJOtir7+Jul2HG7Ph1MIp26xq7S1s+K09XTsN7sHaue6e9aHzviXoJjhebGTHv3j9D9mftNlyeox9Dy8n3luPbKd5Ne1rbWBCBZ+Tf2NEiXIgxgZIXcIiwEWMJsgQBmibEkSYCZIglmNaAA0Q0GgGw2EixOhmdAYgbhXBZkQzJGAxZBKMZjIAy5hhgEEZggZs1KMSFyZPmQ0dBEWQ2JjBphsgySIsQmSzFC5IRKTuWJiDIlsTUY1yE1pAfS9JlmJQw9XUtqoHHZtwZEENhnektgXMBDJqZiq6gAN6hZOyxIG5iAmGTYMkRCWo5SAloDKGiUgEVECOqwEpFgyHE9B2bP1YPnFP2HneMrZYSf8r1Ow6J7RVXDUZp39XK32o7YMZOopSMqLW5WoTLLZ6IyHFU1OLhLWMlZnBOnlbit0W0vuPQIzODxlZOc0t6l7zrh8l0XNiJxG57ia6OjUVKvE+U9p9MOpr16dT+LUWvJs+qcRNpO29Jtd9nb2nw96WZt16spK0+seZbtT0+n5Lx5Sx+W+0Hp8fUcHRf8Aw6bGYSnVi+qkmprc3uOB2p0SrU23lclzjrp28jjML0zq0XvemlmdZsr0uP51j9bj6rDOSZeX8Fy+Her9LnleKY5YW+Pf+DVbQwmeEoNNXT8GeWY7A5ZOPI+jKXTDCVvlxi297tr7LFHF+j3Z2JvJOpTb4wmv+2SfvOXN6f7ybxse/wBD8XnpbZz8fJjjvzJub/8Af0fO1SiVp0D3bG+gCD/ssX3KpTXtcXr5Gix/oBxau4ToVOxTcW/8r/E+bl6Xln9nf0fp+H456PPxzYz/AOW5/OR5C6RnVnd430P7Qhvw0mucWpX8maXF9EMVT+Xh60f/AGpfcmea8Oc845Pr4eu4OT8nJhl9M8f+XO9WSoF2rg5R+VCcfrRlH3pCKtSJz8d9V7Mcur8u7+qticRZWWrelvvfYuXEVh9m3eeTvPg9zXZG+kF3alihQV8zLnVrmcOm5d74+j0ffXhmsPN85au/oQqKW72X+/UZCI3q0MUFyOkkjw3Pf/n/AMqzgQqZZy9hiijW/kz1f+9v+VZ0hNWgbFUewXOg+Rf2axz17/y/5amVDUbCjYtOn2BKn2E3HW8m/wD2f8q+Uzqy1l7CVAbvy/1jFy/97KjiRlLUqfaiFSFqzJWsTYsdV2A2SWrt32NL1fL/AJ/kruJiplmnTUvk3k+UVmfsuXsJ0crz+RQry7qNT35bDX1/y2/yZy5McfzWT69mo6oJUzrsL6L9oT3YStb+ZKC9rRvcH6B9oy30oQ+tVh/8XJ+Z2w4eTLxhb/Cx4eT4j6bj/NzcX+fH/l5p1YcaR7Hgf2a8VL5dajDuz1PckdLs/wDZcj/eYmo+yFKMf9U81vss9WPw/ny8YX+L5XL9pPh3F558b9N2/wCksfPkIEtH1LgP2fdn07Zo1an/ADKz91ONNeDbXYdJs/oRgKFsmHoxa4qnFvxck7vtep7cPhHN5y1P4vhc32y9HL/0sOXk+kkn73/h8l7O6NYir/ZUatT6sHbzasdjsj0F4+pZzjDDp73VnaX2I5n7EfS8sZCKskkuStbyVl7DXYvbceSPZj8K45+fLf6TT4vL9rfVcnbh4ccJffL8WX+0/wBHnuwP2ecPC0q9Wdd/RjanC/m5S7nJHouyNl0MNDq6EIUY8VBJOX1na7fianEdIHuRQ+FylqfQw4+LhmsMO/nfl8Dn9T6z1f8A3+W6/uz8M/yzUbnaG2ktzNx0FrvNfnd+ZyGztjVK0rQjf+Z7l4npPRjo0qEdXeb3vl2L9cT898Y9Vj91cMr3y8SP6H9ivhPN/S8efHCzCTvnZqfwb5A3BTsZY/n7/RybkNkORmYDLmGZjABbIbMnLtBAwGROYh1AAkwZGSMTAG4pMY0BYLtCiZnJMDTLEBSRliUCYYQzIAJmENgSiEyQGBlzDEyGywZKIhoc5AnULiYFJggC95lQhhSloYsC7gzZKQqqjIhxEVBsmV61REH0fSqalyEjX0nqW4yDy7WusITEoKIBNkgBxCCzC5kqRjQaiI1+BmYVVpkIIfFjoMpymNhUCLSYuUwcwLYE1KwuFZcXYyZRnyLBbx2GzQlZppxeifvXM3Hovq3wqSslCcoq3Lm+05+nTTVlpdWZtPRXNdVVh9Go/wAjrh5Sx6BRmPdU19OoPp1D0xzW4nB7YkliJKy1SfL9bzt3U0PKfSPgKksTScJ5VlbklxtwN4X8Q30dAJlfZVXNTi3v3PvH1ZWO67VZx/XieNdL/Q7Q2jVxKc5Uq8crhUjFSTbTVpwekl2pprmj2Vz/AF4nL7ClbHYlc4Qlru0d2YuWq58vHjyYXHKb7V+ce0cJTnOdOnUTqU6k6bhN5JtwnKDy57Rnqr6SvqafE4CcHaUZR71b39uhd9J2yep2ltCl9DGYi3c6spL2M7zo7QVXZlKTSlODrU80kpfIanFO/wDK1Y+tOTs/l/Jw6yymGvN7V5tSxMluuvEuYfpJUjuk14lKltpP5dOPfFuL8nmj7BtOdGXGUO9KS81l9x1mVnvXzs+OX8+G/wCG3R4L0g1o/OfmbzA+lSot7OF+AQfyakPF2flYl7Em91muySZ6MefOeLXy+T4f6Xk84Sfw09Vwnpd3bjdYX0tx5+1nhktkzW+Ml4P/AG9oPVTXP9eKPTPV8n/sfNz+A+ky8dvp2fQNH0k0pb4wffFP3pjZ7bwVT5dHDy+tSpv3xPn2Ep9v68SxDGVFxf68TWPrL/axn7R5Mvs/xz8nJlj9MrP5V7z+7tlz34XDeFKK9yRE+huyZb8LR15Zl7pJHiNPbFVcWW6XSOouLO/9Jwy84Y/tHH+qfUYfk9RyT/8AvL/l61L0ZbJluo2+rUmvvFy9D+yn8ya7q0zzWl0oqc35lmHS2pzfmdJy8N/sT9nG+i9fPHquX/Pf+XfP0JbLe7rV/wC9IF+gfZz41f8AqfijjKXTCpzfmX6PTSpzfmWZcH9yOOXD8Tx8eq5f8zo//wAB7P8ApVvt/kF/+vuz386t9tfgaBdNanNjodNqnNnSZen3+SONnxSePU8n7tz/APr3s/6Vb/qfkOj+z1s//jf9X8jSR6c1ObGLpxU5vzN79P8A3I5W/Fv/ANnk/wAzeR/Z82d9Gr/1pFih6Atmfw6njXkc/wD02qc35hw6ZVOb8zc/o3tx4/s53+tff1XJ/mrp6foK2Yv7nzrTf3ov4f0N7Mj/AHNH/NKb/wDkcaulVR8WY+kVTmzUvBPHHHmyx+I5efVcv+e/8vQsJ6KNlLfSwce+k5++LNvh+hGyIfPw8bfw8BGXk3l96PJ/35V5siO0Zvib+84/bDGfwjhfS+qy/wC56jky+ueX/L3CFPZMFZ1a8rfw8PSgv9TlYx9Jdlx/usXUtuUq0IryitDxLrpv/f8AFIYpy5v3Gpyanaa+nZz/AKF75Z9X1tv83r8+n2ATvDAr/wByvUl5pJe8pYz0lQatDD4en9WMm/8AXKV/I81o0JS3Xfn+A94SS36d+n/dlL99lPlPq55eh4svOvprX8o7Gv6RJvc0vqxS9yNbiemc5fOfmzjcVtzD0/7StTj/AJsz8oqXvKNbp/goK/XOX1KcpP2uC9pnL1mvOU1793q4/g+9XHhzv69P++nZVNuTfMRLGzf6/SPO8b6YKC/s6NWp2ylGnF+Sm0c7j/SxiZfIhTpLxm/OWj71FHkz9fhPFtfb4Ps96jPxxzCf4rP5Tv8A6PYJYmXP3+7f7CrXxEI6zqRj9aSj/wBzR4TjulmJqfKrT7k8q8LWNdFSk7ybk+bbfvPHfiWvy4bfZ4/s7JPx8mv0xx/3r27EdPsJHRTdR8oRbXm7e4Zguk06qbp01G86cYZvWk80kt3yVpdnj2zaGqPob0F4JZpNpO0FvSaUr2ur3Wlj53qPiPLMb7TXs/T/AAr7O+l5MrJvLKeLlb5+naf6PYIUIxSUUkkkvV0WmjenNhRZjkYfjc87neq236939v4OHHi48ePGSSSeJrvIGT7gLhMjKYehNyJAMzN3BBJkNkNC7gFKXcTJA2Bm+4AW+4xIwDMAUkKkw3Ji5AEpkX/VxdybgSyCJMhSC7S5mZhTZF+0LD8wubBTMciaKy5mYhsG40QxyMzAowisIkiTJMQDlBcgs4uTOgCVUi5gOYzaJg9QpyFwlqRVkWZCXIRKQWYXJmKMnIq4gfORVxUyD6Pgy1EoqXEfCsaeRbjUsEqohSDRIGdYHCoJCplosJEOQOcy5lUtgOIVwZMIiUTLE3AbAdF6AOYMGC6gEqprYqYl2Y6+qBxsrlgSsVbd5F30W13nxKtZtp28bGqldGx9HVZfCq8b3+Ku9La5jc8l8PRoIs0aQikPpo9jkNwOE9JGFlGdKok21ppf28D0KENTU9MX8WlbjoXH80HJ7NjaCvx18TMQwMHW4MzETO4qyZzOFa/eEl9Ohfs0vc6OtL3o5KrWttGl/PSlE5Z79m3mfT39knA47F18XLEYqlUxE3UnCCpOKk0rtXi3r3nCdIfRPS2VGnhaVSpVhOUq0qlSyeaXqWsrJZYQirJW0vvbb+qpVDyX01YNOWGkv54//M64Z22Svg+s9Dw44ZZ446unwPisNaU1ynKPlKS91hEY6m0x3y6i/wCJP/uKM4bj7HtH4DrvefqloU3bdp3FiRWkGce5scfOO6cl3Sf4jY9Ia6/vZP61pf8AcmUpgWJut9GN8yftGyl0iq84vvpw+5IKn0qmt8Kcv8sl/wBr+41MqYvqiXK/O/u19zx3tcZ+2v5Ohh0yjxoR8JyXvTHx6XUuNGS7qi+9HMKDMsbx5Mmb6Ph86/bLL+W3XQ6V0P4c13OD/AZDpXhvoVV4R/E40yxr77Kf+XH+hcN9sv3ru49KsL/xF/kX3MfDpThf+J9j8zgOrJhTNTnz+Ucb6Dhv9793fvpVhv5/sP8AEJdLcN/P9h/icIqZCga+/wA/lHH+r+H/ABfu9Ch0ww38/wBj8w10yw3Kf2Y/icAqQcaA+/z+Ucr8P4P8X7u7n05wy+bUf+WP4k0vSJhnup1PKP4nn+JoC9mUryl2Iv8ASM9+Z+zf9Wen6bfxdv1r0t+kSjwpz84r3JgS9IseFF+M1+BxEaQ6NFm/6RyfOfs839X+m/u/vbP93Xy9Iz4UY+MpfcgX6R6nClS8VUa8dYo5XqWSqJLzcl/tJ/QvTY+MJ+9v83UP0n4n5scPHuoxl/3uQv8A/JOP+biHDn1dOjD2xhfTvNB1QUaZm8nJe/Xl/C0/o/BP/t4fxwxv84u43pZjKn9pisRPsdWdvJNL2GuqVZy+VKT75N+9seqISpE3lfNt+t27TLHHxJPpJP5Rrq2G03fj57yvGgbepQFfBDPS9GPPr3UOpJVE2lLZ0nwbLlDo3Uk/kvxNTjt7acsvU4zvbI0fwUKhgm3ojtMP0K+lJdyNxg9iwgtx6sfTW+Xz+T4nhj2xu3L7F6OSck2rLS9z6M9Fmz406Urdmp5XSo6pLmezej6lai2uMvcfO+J8eOHFqP0v2T9Ryeo9XlvxMXTohTInfkCfkn9lg8xEpi3MibCpdS/IzMBdmXYB5gGQ32kt9oGdZ3ATq9wcn2ic3cAWfuITIzEMCZSAlIiUgZsCMwDmZ5AX7gCzkZiDLgSC5mNgMA8/cRnFqYbqATchsHODOYahqloDnIz6bwb9plR5jN4vOY6gEsgHMDKY2MqMhgykZJlk2IsRUF5yJTHQMlICUjJASJrQycyrXQ6UivUZB9H02WadMXGn2liMWbeRMYlmlSvoIiWaFZLeZFWlO8pwacZQtmhLR2aTUl2WaLEaY/FzjOSm9ZKOS/Fxvon3PUhRNBZjDkgFIlAXBciZzF3IMcwcxjFdYA+NQGbEuYipX1Ac6xXrYvQGtLQ1k570WC1VxzSuraczbdCINYpTW6VKSk92vC5xOJxL1VzcejzabWJpQed3zXdtFy1NTyXw9loTLtKZToR1a5FqmtT2OTY00aLpfVWWN3x3HT4fZ0muRyHpNwyhSjr62bfySE8jkJ4pKVrfpiMRjNdCpiH6kZ33te3dcTOV1953ra3Gtc5HbNS20MG+bkvFxRvcFTyq176nMdLlbE4KfKsl56Gb4HZzW88/9KtG9Om7fJnr3OMtTu8TPfbm/ecl05d8PU7INrwUiYeY8nqseriyn6Pzzx8fjKn1pf8AcVZR0L2Pj677dfMqTW8+7j4j+T5X8V+oFC6FSpj6BE4ipLqqsoEKmOyEZCOnUTOkCqZYlAhQDfWrOkR1RZlEjKFmZHUjYURiiPgkXW2cuRWdIOFIsxgg1A1I5Xk2QqRHVFnKYohz6g06OgcaQ6nAYoFcrmo4mloK2Hh7yqdkb+BfxENDY9BtlTqzrQpxzTlSairpc29W0louLGt5SLeXp4sr9P5xTjSC6otuhbfw08Vo/ajOrOutPHc1ZUhkaI7qR9LDt7lcarnc1WNANUTaUNizfCxtsN0c5s74cOWX0eTP1WGPu5qFEt0NlyluXsOvw2yILgX6NG3YerH00fO5PiOvyxylDos3v0NrhejsI71dm7lEG56seDGd9Pm5es5M/dSjgEtyQ+lSHGLQ6zHTzXO3yyVMVOIbqAzgWsQOHXrLvPaOhdO1Bd7PHsHT9dHs3RyNqENFxZ+V+M38OM/V/WfsNhvlzy/Rtm+8GNhb8PP/AHMuuzzPyetP7LPA7dhluwHN+rshy7vMijAlPsIlIC4B5wZVO4KX60Ft/qwE5u4xy7gP1uJt+rAZm7gZVO4GT/VgG/1YBmfuBnLuFp/qxDAK/cBci5ABZu4C5F1+kRUAmUhdyVMhyAy/cRKXcQQwMzmZgUiWi6ahiiYLUjMxVG6n6sDn/VhebtMnIA5SAZCYMhrQyZGcy4EpFA5iJTJbFtgY5EXMIbOdETK1YsSkUsTOxkfW1HYD5FtdHWemrZcVuQ2OzIb2jpqvI8wfR7gTPow7dp6k9mw7PYFDZUea8bF1E28r/ot26hQ6MPgz1aWy6b4LyJp7Dp24E0beVw2DN8E/Ez+j8uR6lT2JBX0Ra/dNKw0bePf0efIXPo2+TPXHsiit9vEVPZ9HjkGkeSy6OStuKr6PM9hqbOocHHzF/uyl/K/FDS7ePz2DK2/2fmU6mwpdh7VLYVN8EIn0ap8o+xF6V28SrbHmuRQxOypX4HuGI6K0nxj5oo4joHTlukvYOkeF4no7O99DsOgexJJO0byir3+iuxcPM7l+juFtXp2Gs2jsKOFcaqrxpX9VxlNJzXJc7lmPum3Q7K2ZKST3to6ShstU43nZP2mmxPTSNDDxqxjDWNs2ZNRa4v3nh/Tf03VKjlToTcr6Sq65VzULb3+R6mNPXOmvpew+DWVvrKnzacLPXVJy5K6PnTpD0/xOJqudWo7ZvVgtIpN7rcTnp1m5Xbcm9W223fnrqV4T9dd694bkdzsfa9RznCTTpuMXFW3NG8hiOBx2zXbEyvfWC7kdK0ehF+FU470hbScJ4Rrd8Jp38zp6MzjfShL4qk+Ma9N/6kZo9ExM1d97fmcp05f9WrPioNrus7+83+Jqe5Gm27Tz0asfpUpx9l0YnmOec3jZ+l/k/PrbMLTNXI3nSalao+abXk7I07dj7uF3jH8h5Z08mU/Wgw6DcAaO8bNlrjd7V2jLBtAjTQHEHKMIyjTW0RgCxsUKkXSsihkAIjacSpRxQ2CAyjYGo4WocQoQDCSJpztFTGxgRSiPdNmtPPlkrzpk4TDOLbXHf29j7OzQ2GDwuZm5pYOKO2HHvu8+fqJh28tRRwDe5fr2F6jsRvfY21OCHwkerDim+75mfqsr4iph9ixW82GHwcVuRMZ9w6lJHpmMnh8/Pkz97TI0x8YgwRYUT0SPBlkyMB8IAQGpmtPNlQSAsNsBJG52MaBgtDLGRgGtglTEzZZqIRKBLG8b81nZ0bzPZNkq1Kmv5b+Z47shXmez4aNoR+qj8f8AGspvGfq/tH2Gw1hnl85Ydf8AVkSn+rCm1+rgt/rU/NP6vPB/gLb7/YB4mSYB3McwJSXNCnV7UYFhMhzFKr2kKp2gFJgZyJVCOs7QJbIcgJyBYEsFyBzmZwJt2gSZDkA5gTJXCzi1MxgEmZmIzAuRYIYWYVNswuw1MyTFZrEOsNqbmMuK60zrBs0JyIkwWyHIrSTFIhSAzkQTkDIhyAuSqiTIzENkNlglzBlMiUgJSJlfYY6hRxm4tSkV8RM5j1Sj+2dtDjhMJ9ur+Bbj+2ftD/CYT7VX8D5xhUH06h36q56fRa/bLx/+Dwv2qn4GP9sXHv8A9LhvtVPwPn2Mh0JETpfQEv2xcd/hcP8AbmvZlYt/tg45r/ytDwqT/wDqeDNk6A6Xu8P2tcb/AIej/wBSX4DF+1tjf4FH7cvwPBqbGZwdL3Of7W+M/wAPQ8ZS/AX/APtfinvwlHwnL8Dw1GXB0vc4ftXYnjhafhUf/wBRn/7WVf8ACQ/6r/8AqeEgZDOzpe+w/aqq8MKv+s//AKlbE/tMVJ/Kwq5/20vwPDFTGyRTpe0U/wBpCcXf4JHxrN+9Dp/tQ1f8Kl3VX+B4Y5AORldR71s79pacpWlQcYtpX61u3atDucN6Q8PVlGdXDKdo3jPPmjf6jW8+S+vLFHbdWOkak0uWYu/ZzyxfQvTPpuq9GpSUOrjJuSs9W3x7O483wmiS5Gr6I7UnU6zPJyypWubWgejG6jnpfpRF0qDdRJc1vGUJ8DKUfjI675I6K9KpYeGV/JzKK146CYGszTT9XVL5Vy9Rk33cj0MnnKekulfCzfGLjLykjqLmi6cwUsJXVtcjfkSjdYOpmjFvjGL9gmcb6c9DNl1M1GlLfenD3EVKhzif+Xwl6Q8DkxNWPKrUX+qVvcjk5x1PTfTns/JjsSrW+McvM8yPt8f5Y/kvrcennzn61EXZhyYl/KQ+ZuvHS2DlGASG0AzDDDTQogTQ1i5hYEbTAgNgDIYcGRSiWYUTUefKoSH06A2NAq1doZWddaefvl2xbnDYVFieGuarC7XXE2tDHxZ6JJY+fyY5yrWEwti7kFYaqmXFDQ9GE7afL5Mrvu1GNxjW4rR2jLmWNsUtTXwple/jxxuO1v4XLmbPZeI9Y1MIF/BLVG8XHlxx6a6qI9CaT0HJHrkfnM/JlJDBUBty7eexguYxima0kYTFkGZiNSbTUYirKwecRXgTKuuM7th0aTdRcrr3nsylotdyR4/0TXrR70esZu4/EfGMt8knyf3n7G4dPpcsv1/2WHPtBlUEOfcDJ93mfCf0aGSqAzfaLRMgIlS1TvqvLkHGp3eQNiJLsM6DHUBlMUycxAbfcDfuIz9iAzdgESMiyfIXJgG2A2RmMAwG5DZjmBhOYAwAnIEwGQGTmQ2wZEXAlsgwy4XbPIFt34GNgMLs64MiIsKRs2EwFkWBpLkB5GNATmc9qmTAuDKdwGTYOQIJjkQDORXqQb4DWxc32gcTCZbpSNNCsyxTxNjsw3VOY5TNRSxyLkK4G0p7gXIorFEyq6EovxmMRradcf8ACRBelACyFRqBqRQyMUTkIgGTQmKQLQViGKEyQEohSlqZMyEOGpE0FICpMJZt1fo/heVVfy38joKW8570b1Pj3HnB+46GC1Z2xvZyy8nwqajcNTfWQvzXvK9rDYVtV2NHaeGXdxrWvommWcPXT03FOlWvBWtquPcIwmJfY7cT0sttM0/SR3oVVwyO5sFiLsq7VpXhNcHFr2CiOidS+Fo/US8ixViavoNVvhKfYmvJ2NpKepz1qD5V/aOwbWMnL6dOMvZZniNapuPpD9pzCfG0p2+VSa+zofNFZWb7z6fp7+F/NPi3Hr1ORrd5Is1IlWjvRckz1vhZ3wS0BMY2KlIhAkxIJiaaERIlkSChiWacStEt0CxjM6lEtwiIgyxFm8Y8OdONPi6erNwmazErU6U4rqgoUTZYeiynRdjdbGw8qk1TpwlUm72hCLnJpK7ajFNu3Gy042O2EnunLcr4bHZFE38KZW2fseqk5OjWUY/Kk6U0o235m42jbtaNhGOl+D3frce7CT2/i/M+pt6u/b/dqto4a6NUsEdDipFehQu0km29IxinJt8Ekk3d8rC623x8tk0oUsAy5Rwljlel3pNWHqPD4em6leF1OWXSlKL9aDhKNnJcVLdxXA3no4q7QrzTqw62hOLfqyoKUZcG5KhCShF2k4Qlok9+58Pv8McunVt977PtX4V6rLh++sxxnmY5XWWU/SOmw1TgWYzIxuAoQd443Dy+MlRvNSoqpVi3aNLMnnzwSmuySRVxLcbp6Pie7HPfb3fmOb02eFm5rq8fK/NbVUcmabCVHmRucpud3i5cOkdwJhIGZ0edBDiSYkZbC1YTNhTZXqszl4dsZtvuhkU6i7Jfn7j1GR5j0A1qS7Jf/E9Izn4T4rd81n6P9BfZHHXocb86YpAyl2CWwes7PafHfuz+s7CMyE9YYqgD2yMwlszMSg2ShbmYpmQTATMbREpgTcxoXTqbw3MsEXMcgbgtkBEZgesIb7QDuQ2JcjMwDbFerUYbqC3EDKWgy4qUwXMBzkAmLUrGQqAOsY0L6wyVQugyCCExqEuoaUcgJSBdQiTQaQ5gSZLYtyMWAUZmMbFSkTQbmF1JchcpEImgy4qYVxVapYao4Kkx8Y3KVGZbpyO2nGVLwaCWGfMZGQ2BG1XqJX3h9XLmWYsbkRBVg57jM0+ZY6sYqQA/CppK46ntNreg40zIwTKLtDFpjfhCKqw6tuMeF8jOw9YyPMYqpQWzo82WlR4AHmTIckIeGYmSaIHVJCZoB1WJljuaA3vRHFuOIpWvq8vfc7+a9aS7Ty/YmK+OpNOzVSNvOx6jjW1Vkna7dzrg5ZeRMTUmTUqFatV0PQw6jB7R+LjrrezLGHxae5+HE8+2v0uhhqUpzeitoXui3pBw9dxanFNpXR2xy2y9EwVfNz0L+Ip3TXNP3HP0duQWnrO70aWhsnjLq+65qjV+j2olhcr3xnOL8G2bN49XOU9GePUo4ule7p1m/tG6qYexzvgeX/tHYdSpYefBOUfNX958p7Sp2m76bn5n1z6bsLmwal9Gqn3XR8qdKaVqkX9KC9mh7+C9n4P43x65ur9GtosttlOiy6loe+PyfJ5JchcxkxE2RrGCJiCmHA0qUEiESGNhyFukhKHUixjOnRHqRXE1sVbQ3Hn6eqtg6pTq6iPhAE65vqdMeKynTxMIShGbd6nyUlrZb5PgoL6R2vo+6GYjH1MlKi50ozzTlWrTo4WDWiVXqoydR/NXqVpRl9BHG7M29Ux08Ns+FGnfrHRpTUfjlKdZuUnU3OLTzZOCi0bn0tekCcqtTY+z6sqGz8BajXqUZ5KuLrU5KFTPNPNCjGop01GLV3Ft3T18PN6np7TvX6z4d8KvJ+LO9Mk/F+u/HT/Dy972V+zJgszy7UweExS1j1PwyGSW+0nFTjUjff1lLI18pWOQ2t0fxuFqzw2PhSdRJ1KGLoSpyoYyirKpUjKm3T6ym5QbilFvM7L1Xb5QxnRzDRealUtUUlNWneV21d5751UWklJO932K30J+zd6W620aGL2ZjP6zXwVGeLwdWpeVWdODyVYTn9OGeD6xtzlfX5Fzn6X1eUzm/G+71fGfgfFzemzuHfPDC5Y/Oa7+fpvsu4tavuKOz/SPi9nZ8Vg0pVYunTjTkrxqOpJ2Ula7UEnJZXFqVh+Kr315nFbT23Km0ozcYKtRlNcH6+VN9zkj7/qctY2+J2fzT4Tw9XNN49Xj8N9/2en9E+j+AwmCe0cbiZq86k8dOpe9XE1XncaTd51KtRt+pBuUrt30d1YT9s2hhHkwmwMOsP8ASxVClKdVfTlmp15xct6l6sufE4X9ofE9TX2Xs936nB4KlipR4VK+L6zNVlHc5QVPLflM8pe1bK+XPmlVz5r3p62p2s+rtld92Zaan5PPmyyvbevZ/bfS+h4+LDWUmeV723v59teO30fS3Sf0h4PpRShLC0fge0tnVFjJ7MzOGHxUY2VapRpKcqXWZNVKk462zWzIrY+sm7rdJZlztL1lfjpe1+w+bfQ7tmdPb2zp0G83wqlS9XTNGo+rqJ23pwlK999u4+nemNBQxWJhD5MK04Rtusnw87f5T7fwzO/im34H7X+lww+45MZJJcpZO3lQwUfWRuUzS7O3m5SP0ePZ/JOfylSMmQgpGup5S3IKIu4U6pW9FzKtYt2K+Iic8/Dth5b70dP4yr2KL87r2WPQ0u8856A1MtWpd2Tpw97/ABO/jWXO5+A+JZb58v0f6M+zOPT6Dj/j/M1EOKFSrLtBdU+Y/XQxkqIhSCdXtCmqRLkVJYgKNclFjMLqTsAqgUmmZEqQFSRDmJlPUsFmmwpSKvwgiVdFFlzBbERrhOsAbZiYvrTFUGgcpEXIzim9SA5shTFzAFBTQEXYghx7RBMqlzE7C5RJiu0ugaqBZwYomS7SibsB1CQJIA1W7CM7BiRKQXbJzBzGSkBnIbMchMmZmIchpYm4WYr5gajb3FU+pNLiInV0MdG6BdGwHndOobChPQ1lGRdonV58FyExyqFa4yEzDqfBlmL0K0WWYMlExlcbcVSGkDojIIXAsoDIMMxQDMBI5MxxAuAdhUkHGfMhtAV5Q1K9fDF2bBlADV0E4TjJfNknru0Z6xtPFSbhUcXlqRTjLg9Fe3ieZOmr67r6nruK2pGrhsPSjFZaSupPju/A6Ys5eGmnjCpi8U7F14cr18Lc6OTyn0y4pxwskvlT0XfvPIuhXTGph5JynZpo976cej2vj4qjB5Fe8pPfa/AV0d/Zyw9J3rXqvTfuvbkJTTZ9FPTnBx9Zx72rm7wfpeUnJZoOC1TtZq/AdT9G+DjHLChCOm/W5Uo+jPDJ/I8nvOnWvQ4zo3+0hgtl18SsVTqOFeWZShFyenKxsa/7bWxG/k4hd9OX4HRYj0V4Wr/dRbW7Mk7FBegjCt/2EH/lROtOhzO2/wBozZm1KbweGVVVajzRcoSSWT4xrXS7ist+TPJOnNGzovmpI+hMX6H6GHp1KsKEIyhCTUkldKzPGOlOy89OKe+Luvc/boe/02W7p+P+O4aky/T/AHcFktK3cXXAbiMOr35WAmfVk0/A5Z70q1EJmOqMSw64sQcQEEmRqmRCITJNOVEh1MSkMpIsc8jyliMJJu5fgNgjccpyXHw1caLW9FPaFVpHSVbI5zbceJMnp4OTrym3Q+gHaNOntvA1KjSUpum29FmlGXVt9t/Uu+Gh5d01wdXB7Qx+DxHxU44ispOb0nGVWVenUcuVSEoOMnq87vxRdnJp3Ts00007NNbpJ8Gj1HanT/Ze2KdOnt3DV1iKUFCG0sC4dc4rd19Kay1bb27SPk83HvLf8n9C+Heqxwx6M/4WvnDG4+MG8jTa3ZdVzvdaXvqe+/sZ7BlRltLa9Z9XhaODqYSM5p5auJxMqdqcLatwUVdJfPWu8VgvRf0VpyzvF7Wx1n6uHjQp4ZSf0alVxTUXxlTaZ223umDr06VClRp4PBYfShhKXyI8p1ZaOrV5yN8HBllZ7SHxT4tw8HFZjl1Z5Y2STv57fyanaOPywS7LeWnf5nCbWmpKSlrGUXF2frLjGUX/ABISSnHk4XN5tTE5n2L9eBz2Lgz63Pl1zXymn899Bh91ZlPzb3HqnTXoXU6R4HCYzZ0qc9r7Pw6w+LwmaMKuJpR+TOnGpl6yekssHmzZsusrW+cdrdD9rdZ1M9nY2FS9nSWDrqTnu0WRt34ZVbikdnsjaNWhVjWozlTqQbcZQk4S103r3M9Z6NenHbco5XtGvlW5+opfa6tvyR8ienuWWo/ff11x8XHvlm7POve+yl6C/QLU2PKG2NrwVGvCLeztnSa+EyrSi4/CcRTu3ShRTzdXNZm2m1BxSfWpOTcpu85ycpvnKTvL2tvxRpFjpznKpUnOpUlrKpUk5Sl3ttvw07jeYN3R+k9J6bHhm75r+VfH/i+fr88bcenDH8uO/wDWrMKSW5IahcWMufUnh+Kv6jQTBJSK5e5LJRDDUQ6BZXxEtB5VxPAxldOvHN5Re2bVjCSzTjFSg1ebte0lbyOgwW36KX9tT+2jh+lPQyGLjSU72puVrO29WObn6HqX0p/aZ/N/WZz77Lfzf6d+BcfR6Lin+F7ZS27Rf99S+2h0NrU+FWm+6SPAZ+iOnwlU+0xb9D3KpVXdKR4uvF959BzxsLr4yCu7K81vNrT2Q3/eU7fXR8wVvRRPhWr6O/ypaPmgZejvErdisQv88zW8R9RYnZDjZ3TXPMivWw9tzX2kfMa6BY7hjMRb60wqXo7x1kvhmISX88hvFz7vpaNF/qQz4O/0z5pl6PMd/ja6/wAzIj0Cx63Y6v8AaZNw7vpXq2yXQfI+bI9Dtordj6/2mR/Rjan/APkK/mXcaxfR86L5EfBmfN76ObU/x9X3jFsra63Y6fkNwr6FcXyMUn2+Z86y2fte/wD5yXfZDIU9sLT4ZL7I3Ge76HUt6zRvyurmRbPl6v0U2jKbqPFyzt77u3l9xuofvhJWxjslb5I26Pouz7TLPkfOjltn/GPyBVXbC/8AWPyJuD6LcXyYHWPkz55njNs6f1t+RXc9rr/1b9hdwfSGa/Bi77z5x63a6/8AVv2AyltZ/wDqn5javo2bGU6LfBnzZOttb/EvzCpYrbC3Yp+Y2PpLqXyfkA6T5M+dVtTbP+JZn742z/iWNj6JjSfIlUpcmfOj2xtn/EGR2vtr/EDY+issuTEzT5M8AltzbX+IFT25tnjXXekNj6DXcxDqHgP762v/AByf31tj+MvIbHu6qPkRXxigs05KEecnZd1+H5HhS29tlf3ifejXbb2ttTER6uq04p33W8SWj6BpY1SWaEozjzi7rzJjjT532Tjdp0YZKcopXbs+02EOlm11ulT8ixN19A4XGJ6Ca+KvfVngkemm2E73p37hOJ6ebZX8O/Yi6N16DSLlE0HQzbkcRDhnhvXF833I6iFJHW9mMRRiMhTDhSLNOmYa2TGI6CDjSLEaSJVJpRHqmHTgOUSAKcSwomQpDWQDYmxMUFlIIFVIDUDMgQYSyAF1G+AmeJtvLeURLCJ7ywIlK/idz0Sm+ojftS7jiOrt3Ho2DqRhRpt2isqf5m4LUoGz2Ts7Nd23buRqdiVIV5XvLq1JJtLer62O42z8GShHCqqvpOdkn73v7DVrFjVVMLk5d6K1RtX0ZeUZS3jIYVmdttFfmrFigom6pbPTequPeyYcrEGpwWBu78DeU6FgaWBSehZUXwQSxS2pgs9KpD6dOcfOLS9p8lbWp5qcW1rp7c1/bE+w/A+NukW0Gq9Wgk7061SL0topyt7GvM9/pd23X1flPjlmOGO/ftPq47H0bM18kbjaMdTU1Ufcxu4/muc1lYo1mLDrMAO8nZhKRCJzBo2KCIiyTTjRxY2mJgOpljnTojoyFJESnY3Hns2nEVDVbWj6pflI1+1XoSvXwTWUc24DKOFuGqepuNl4W+pzmO32OTl6Jtf2Lsy2rN1ip2RmAohbRpaHtxx6Y/M58v3nJ3aWsipVoGwcCHRPNfL2Y56aOOCu7HXbLoZIpFbZ+ztbtG0hS7D18XF7vP6n1HXOn2XcPVOm2bL1TlsPRbaVmdTs6k0rM9+D8z6uTS+HEAKJ6o+NkcTfQDMEiuWi3EMiTAcw1rYZsqSeqLTkJW9d5x5b+GvV6f8APjv5x0ez8PeKL8MKuQGyI+qXj+X+qu+XL6v9S/DJr0vHP8MIjRXJeQMqJYYLPK+oSqZK7l7BrF6gTo+C8kDJBWF1GBEoAumuSMVQlTABxXJeRjoLkvIlxBlILC/g65LyJdBcl5GWYcIgqq8Et4nqluymzyAqiEauOy4b3Ef8AiuCLvUi6krGttbVJYRcl5GR2fD6KLsYaA5TLKi9lQ5AfueH0TYOJGZ7gsUFsmn9EXV2XT+ibB0geqLGmsWyIfRJ/dMPomx6oh0nwNCgtlQ+ijJbJpv5pbd+RifPQClT2VTXzQZbOhwiX7ICUQKD2XT+iY9nQ+ii71ZmQCi9mU/okPZNN8PaXp0jFADWvZEOXtZWrbHV9F95u+qB6oDSS2JC24CWyYfRN86ZXq0ibo072TDkhctmwXA3LplavTNdQ+c9gdJnQrQqRb0dpLhKLfrJ7uB9O7P6O4irCnUp0pShUipRkmtUz476270Ps/8AZc25Ots10pyzPD1ckP8AluKa9vM+jyT3eHG0ceiGK/gS9n4liPRXE/wZ+z8T1eMGWIacLnltdpHjsuj2JX9xUv4fiMp9HMV/h6ns/E9fpYfeMpYfXezO23kEdh4lf+nqeRP7pxH8Cp5HtEKbXHQOMGNjxWez66/uKn2fzAnhK6X9hUX+X7j3Oxd2VjnSlmywl9dXXZoZ2jwGjg6+tsPWdt7UXZd7IfW/wKv2GfQGP2jOo3JtK+9RWWPkrLzKl2y7HhEXU/g1V/lkC1P+FU+w/wAD3mLYqqybHgsqkv4c/sy/ALrHvyTX+V/ge5+rbd7BM5dnsGx4b8Id7ZZt/Vf4BTrtfMmv8r/A9pnHXRLyX4GOl2LyRZR4h8Jf0Z6/ys7vA9H62MhTVnCnHRylpfsR3FDBxW+KfgjZRnppp2LReW4uxR2ZsOFGKhbSK/V7WLdLDq6sHJkZS7Byoa8xrgZQQ5IbA04jkRGASZRCGpiFLUeoEGXR8g+lbCqltLGNJXdTMl9eEL+F17z6+lSPmX09bL/8SllXyqNOb7flQb80vI93o89Z2fOafmvj3H1cEvyyeO4ivmf68TXYlDcvrNcmxOK3n35NP5dl3u/1rX1UAMqCyPRGGGGIulOgELjIZcrjYKAymxUWMgWMnJgykRcixpz1pJWxlG6LUUEqdw11au2geBdzdbPpW0NphsNpeyLEcIlyO+GDHL6rqmqbg4aFmpRuiKFIeoHpk7d3xMsu+2qnssbhdj66mzgizTiJxTyZepyk0Ghgki5Swq5GRgWKaPTjJHy8+S33Mo0kWkyvBjonWTfh4s93yemFcGIUTtPDjRZhkWKGQK5omLkOaFziSkpUhdOPrIZJi8NrM83PdYX6Po+iw6+XCfPKfzdds6DyItJAYX5KGtn8v5u/Jl9X+pvSY9PDhP8ADEESZMpCmzi9grgtmOoibADYjISiYsAHSMUBkpEZwFtGSDzGWAG5FOeoRl0ATIdxDx8U7Pe9w9VAIuLlTCmRKIEKLAFVqcr+rLwYcI23gE5GPcZYGTCwMmLlUDsQ43NRoCqBKZiooXOk0UTUqW7hbrLmMpvmiJ012ADbsM6tDYxXeQwFSgQohuRGYCLgzmjGhfVgG2YDlIAKMiJK4JMZALkitWii5oVakLgfH+zsBKUtbpI+xf2YMO6WCqycWlUqLK+aUVquy/LifL3QOEcTi6VGMXOOb4xpPKkmrpvcrrtPu3ofOjCnCEaEVGKsoxbsl+L3n1M3gwdBSx6HrGJcC7DEUXuopPvZkYxvpFI8VekiGNRbjiEWZUovgl3IOODi+LMqrzxSH0prfdFiGAhulc2NDZ2F1zRqu+607e4zRroyQDq2Npi9l0GvUU424OVzWTwRELjUuRJMfHY99czT5XLVHCu3DxsE7ta4sBwNxVwtlvNfUpAVFAhwLDgLysKV1IyNMLN2E5wAcBsJC5DcOi7BRQTiTGA3KaEU4DoICkXoxArxRkoFh0yNDQrZR6gB1qGqqTYyKPBf2h8Ao4nC17/LoVKb/wAsk17ZnvaqHiP7UFK9DB1Fwq1Kb/zQc/fE7+nus4+V8Ux6uC/pXzDUh8Y/rP3isfEvVF6yK20Yn6aXs/k+fH+K/Vp6jAQVQFEEmGGGthiDiAmGiuWQoDExRMUWMGoJAoNRNM0UUXKFEGhhy7ToneY6eTkzFTgWYQEOBbp7jvJp8/OrNJ6GC6NQc9To818sgW4MrwplmMDtj4cM6ep3Q+DRUplmmajyZGwHxYmA2KO8mnmpykNiirGQ+Ezo5ZQxBoSGmHPRgMiYgzQZ0RUA2fG82TVegezI3kfP9Xf+nfo+98Jx36nj/wDlP5u0pWSXcHmQEaOi7iY0D+ZZ/mv1f6jwmsZ9J/IWgLSJlhwHQMNodFPgEoAOPaybAFkAaMlIW5sBmUydIWqzMVbsALqzBcqyvxM6xcgCyGOAPWkKuAqvgk7OyuuI9Kxirox1EBMQ2DCxmYAJUyMoxkAKcCLDQXEq+AOADQ+4LGzZMTJR5DcpDG1KafECcE96HuIvINqSqKW4ka4g5S7C7EOAxoy5Qh0ycgxkSIhCIyjshjgTYQwZDXAjKVVYGY6UBVRlDPRX+z/Tw1KKhlT0zTkm5TlzeiPdNh9Bssf7aPCyUWa/DU3ff5G3wdVrc2j2XkteXHBsV0YS/vY+TGLZSXz4tdwuE2+LY+JwdErBp7mOpYK3Fe38AEiGwLEaKBsBmIgjNDzHMSpEpka0apXAku0yLMlIKnOKcScxjCUEkAkMlES4sMrmE2PUqKTp05zUd7itF52KL0dmrNaNcVz8jb7J6bVsNCcYTjGM96l/ucftHpfQhdupmbbe+7be/wAxbF02taduFxNLaHDK0cXtH0mpP1IX7zU1fSDXk9MsO5E3DVes06hM8VFb2vM8WrdK8RLfVfgU621Kkt85PxZqVemvbJbepRes4rxRWq9O8PF/Lv3aniMqj5t+IdMu16XrmJ9J1Bbs77l+LKdX0pwW6nLzseaKRDkZ6quo9FfpUjfWm/Ma/StT+hLzPLKtQl1CbTpep0/SnS+hK3ecJ6aullLFYLJGMk4VIVFe3C6l53NNKZqukizUZr+V6HTjy1lHj9Xh1cWc/TbyTaUrNMrYqpdFraEd3d7zVKpfQ/VY3tH8l5JrK7VarAGVkAbea+UXCiCkFEqCQeYW0FE0xZswmLBQSiWOZ1JFulTK1EvUzrI83JToofTmIjMZA64vFl3XIDqVMqwHwkd48uR0YWHpldSHRkdHCnKY+NQrJDaZ0jhkfAs0yvBD4Go8mR8ENUhcGGkd8buPNRRiMiDFhxZvbnRhRkBmJRdsHRZEwUSysK1VFnYlP1++SK9Q2PRbDOVSC5zPl+ty1xZfR+m+A49frOKf4o6zKBJnS19jmur7NZ/M8t22v9OT/afyarOZcdPBMTOgwoJIDME6bAaAFmJEmAFGIXVEU2S2AqVMHINkiMoCsoEkh6iDOmAuMLmdWNigKkTWl0zqjJQBjNo12K2tNaRp+LRNVdL+bvClRvxEbPruSu1ZlurUSV2XRoMaXaEokQqp7gxoA4MU0y5EidFEqKiuCyw4GOBEV8xFxkogqAXYZAXGypiqi7AbYRlEuk+YaTLsZNEXJkglEKAlIxoyJBEqYtwsPuFYu1VMpXrUzYTgVatK+80PeMLQj2F+nQiaqjKzNnQnobYXI0kQBGZkphgbqGIQpri/aRLGRWuZeaC62tZzMxqam3aS+eirPpbRW+SJtdN+mEpHK1enlJcH5il6QocIjqjcdjFmSOFn6RVwiV6vpInwijPUO9lOxVxu16dP5c0vaea4/pzXmmk0l2Ggq4py3tt9o6mJK9F2j6Rqa0ppy7TmdoekCtPd6i7Dm5MVcly23ozF7RqTd5Sb8SlND2KqRMoW0FTBDpoINmNmWMuG2RHQYMKfEGTNg3UFdYA2LuBlaepmYTU5mZwGOoV8fO8JJcUyJ1BcpCXVjjyTcs/SvL9rU7XOVlP1jrtvfKku846utT9Pw5bxfyn1vH052fqfUFhX0Ftnqj5N8iMTMJRpEphRBCiaYpgaFoMjCxSLMJFWJYgddvLnD4ss00VaQ9SO2DzZGwkPhMr0x9M7R5sotU5FiLKsR0TtHlyWYoZBCoMYmaebJapsfEqUiymaxeXKHQkOUhEAztK4WHRkMTFUgzpHGjiGgEGjTnRpk3BCNMAnBWOx9G+y81el2u/sOPUbux6n6J8FbEQvujBvxPifEv8As5P2n2V4+r1uFrvcRsjsNVitj9h2+WLEVMMj+eR/oyPO8RsZ8jX19lM9Ir4DQ1lfZAV53iNlyKNbZ7PRcVsU1dfZPYOkcK8M+QOQ6/EbGNfidivkOleqNBuIbL9bZz5FWeHaJrSlGIJwMsQY2QkC2SBkokOISMmBXdMhaMfYCaNtAyct5pcVsWpKTeeyN5EIK11PDSha2vMu0qt+wYwlElGQDVQCRMImWalxIUBkmkBKoEDKAGUbKYu4AJASgMkyAFSpgukPuLbCwHVkSDuBOIaA0RlCUTAIcSSJA3AxsTOiOMqTA9sjDXsLEtoU4b2jzfF9K5S3OxrqmOlLe/aXqHoGO6aQjdR1NFiem07aaHNMhIxck1pfxHSGrL5xTnjJP50vMjqzMhmXahzPm/MANoDQoyxMgXMzOBMhckMcgQBQDDciAAYpxHySFTEy2FATDZOU2zSspMIDbCXUCGyqGUo3FxVy3TiSeWh8CrUaHsqVJ6nQYxDGNiKkwxtFSYiTuDVqCZ1dAoqkyrXqESr3FdXcHns4zpOvXl2nE4xHc9K6VpvuOHxaP0Hpr+GP5r8Qw1yZfUNGpoEKosbc+k/N5eWXMBJSKyOIcWBEk0zRxGwYmLGIMVZpsYmIpyGpG8XCrVGoW7lGCLEJnbCvJnFiDHQK0GWKbO7zZxYplmBVpss3O0eTIyI+BXpsfA04ZeFmkOQmmONR48jYMZFiYMNI6xxsPiwoi4sYmdY5U2JOYGMgmVzSkEDFhjbC1g6d2j2X0UYb4xt/w2eQ7Gj63h957R6MqN877LeZ+e+L5646/pH2O4980v6vRq2HVhcaCKtaLS3srQrvmfh7d1/dl+eH7RPVC3XYdPEvkRCKuEb0tvK7wFlqjo8K1vHVacWtUaHD1cJFlOtgEdnPZ0b3t4GnxGHTeiA5PFbGua6rsdcjvpbDuka/E7AfBirHA4nYhRq7Msd9U2RJFCtgOcTOtq4Otg3yE9Qzt8TsuPKxrMRskzZpXNONgWjc1dmlOpgyNRrnU1tZhodUoC3E0rMiIlTGRiBORlKiMBrWgumx0bMMqqQ2ASp6kqICZgFmdES6QAsWGTYBdzLBKIWUKDIRKkFmGNholUwZwGsBsBTETLMhM4gCmSTYgDMoU4XAuRJgbijsxlqOy3yPWY9CqNramww/Q7Dq3q3JoeMvZkvoshbJm90JeR7rR2JRjugh8cLBboryHSPBqewqz3U5eRbpdEMS91J970PclBLgl4I5LpNiqcJxqJyUl8q0nZ6Ws43sTWh5bjujtaHykl4mv/dVT/Y6naW13Uk23pwRVjWINA9jzMWyJHQdYQ6oHO1dmS7Rf7vnyOjuS5oDnHgZ8hbw0+R0TmhSqCjnpQkgHVa3p+R0NSS5FapBPeZkGlVVPeHKZsZUIiJ0UaSqcdQXAsumhbpmoyyEBkZgOIDiUTUrFKpXVx1SgU6uHZtpM8SVqmIYc6JXnTYZ0XVqti+pYyUBqWgFLqwXBlqwE2NM32+rk+lcNLvijgcZE9H6X/2afaed4xbz7fpb2j8P8Wwk5L+vdRpMfYrQepaPq41+OziEggUwjTkmJIKYSZYlYNhIUHArFOiPpiIDoM6yuOSxGQ6mIgh8Szy8mR0B9NlaEh9OR6pXnyi1EfGRXgxyOkeTI+BYpsr02PgdI8uUWqbGRYqAxM6SvLYbBjkxMRyOkcchRDzAJhpHWeHKmIKDBiEkVzGw6YtMlBzbLZUvXR7t6MLKnUf1fceGbDj65796OcE3QlJO2tvJH5f41Z01/VfsVj+P+Lq5RTFrCpETw8+DF5J8j8bZ3f2dcjGPJBdXHkjXLCzvcc6MjQuqpbcHGZRjRk9wxYeRdC3YVLBxbu0Am0FGbGg5U1uQHwQGFN30GuUuRaE1NnIVX2REvxqS5FZubfAmhosZsRPgairsJI7R4dvkJq7NbXAaXbzzFbG3mtq7IfJno9TYkuSZQxOx5fRt2k03K87xGyHyKFTBdjPSv3G3vRUxHR166GNG482qYNleWEaPQKvR7sNZiuj7BuOOlTB3HQ19imuxWyJIyb216l2kqQdTAyFKm+RNob14EpAtMi5RNjGjLkOQExiQROYtyDZs4GKAtVhnXhETgJsPlVKrrMKmSARkq4MqiAmQDRjqEqSAywNTtROYq4moB9RwTHq4CiNW42FykCrmTQc5JK7Y3oanb21ckHrqeXbUxjnJvU3vS3ajlKyZzLnocd7AOANwnMAAri8wRlgMsROmyc4MqjAVUgLUBmYh1AFSWgiTG1KhWqTAGQuaCuZFgV5GDZohQNRmh6snINcSEyoXNFOsi7UKkzWxXEyQ+QmZV2r1BM2MqsVMsZpcytUY6pMQ0VlpelMfiX2WPOsWj0zb1G9Kfdc81xcfcfU9Jl7PyfxbH8cv6NYt5aW4rTQ9PQ+xi/D8k0lBAEo6PMImJBlywEHTARMWaYOjIfTZXHU2ajjVqKGxYhMdE3HlyOgWIITEbTZ3wefJZgOixER9M7x5Mj6ZYgIgPibjy5LMAxUBqNx5aZFliBWiPTO0cMoYMQuAVzcrjTExkRKGJm3OmNEGIyxKw3fR2jeXifS3o6of1Vab5v2aM+cOjDu+5n0j0Hr5cLTX1peZ+R+MXfZ/ZvsZhJj1fo6SVNAdUKWKJniew/NP6lMuxrolXqHccsURKuOzcYkTcBSDuQKlTH0qJiDp1QGOkuRKpEdcN69AKlSA6tBTrB00AvIQkh9WkV1FgMcUV50ixcBxCEfBlwK9bAF5QMaL2VpMTshFKrshWOnlSAdEzocZW6Pp7karF9Gj0KWHRXrYAWDzKv0e7zV4jYR61X2SmtxrquwE+BnpXbyivsRlKps5o9UxewOFjWVejy5GeldvM5Ydi50HyO7xWwLapGpxWx3yJ0m3N9SC8Obers523FKrhWjLW1NUQsg5xYtohpFGmlp+uYFTDobExsStKcqCFyolqaFFFadDsB+DlqSMigKcsGyrWotG4ZVxCA+nUgiIMll2IzGo29iLQZtbmh6SP1GS0ebY+teTKcmPxm/xKxjQhTGxiKjElSAloRiJSt6mW/8ANe3jYZchICIXtra/G17eF9bEMK4EmADYEgrgSAr1AbDJIiSATMXceTCkBWSMitQ6qARYzTTMpiREjSF1IFOaLUmIrRArSK9QtyRWrRNzwulWRXqFioV5IsZpE3qKqTDqIRIrKtjNYyX8r9x5njInp043v3Hm+1Iay72e/wBLe9fn/i2O8Zfk0lYbT3Cq7G0tx9vCv5/zRJMSCUdniEY0RcksBIlEIlGmDojoCIsfBljjkeh0RMR0Do8uR0B0BMB0Dti8+R9MsRZXgWII743by5LFNliDK0B0DpHkyWQ4AIOBuPNTkNgKixkDrK4U2DDFxYeY05WGxYSYETEdXOw0yxiMuSs6dJ0VXrd7R9OdHNnL4PR+on5u/uPmLorK849699z6s2TPLSpLlCK/0o/HfF7+LT+1/Y7H/o3L5dhPCW3ASpFz4TzK9Wsj86/o2/ZUaGNBzqi89yOm9DiHYXFhZ1yDbGjLkyZiQEqqFKQvqxsUAEZDlMKNMhQAfF3JURI+MQFgplhxQt0wEsjrWP6onqEXQQwnEONMYoEFfIT1A9oVOoAHUgvDh5g4PQCrLZtynV2WuRuosXURNDm8Tsm5qq+wVc7R0kKqYYaHnuK6PeRp63RlOSbWqvbXTXsPVqmz1vKNbZF72Q0u3lOJ2K1wNbX2KesYjYfYarE7Du93sJY1t5dUwDRUq0Gj0zFdHdNxpcV0dfI52VqVwsoASR0WI2NZ7ihX2S1wM6qtUZcs1cK1zEyp9gCrFWtMuFTGID6eDiYqYcaYQto1e2sLmjY2qArQuSo8Y2rSak12lE7vpXsPe0u04idG10ZaKCTB4hZQAkgUxkoiZRAxohxJVjKrAVKAtsY5MXYAHEGcBuUCoEpWUiQdjHIEIUQshMpEXCVJjQSiRJG0KlArVoFqZXmgKsoiJlqoIkiwtVKsSpI2FVFGUTTKnUYiRdqUypUgaiK0zz/pDTtOfed/UgcV0sh677T2enuq+R8Sx3xuRrIZRloDiERQkfdwfzrmnemmGGHd85MSWyIktAFFhC0g4molHEsUxCH0zccc1mI2LEobDU28uXhYpjoiaY5HTGvLkfAsRK9MsRPRg8uR9NjoCaaHQOseXJYixkRaDUjceY5IahSY1G44ZCiHECIcTccqm42mxSHQOzFGFEDMSpErEm7p1XRHD/GRXNr26H0rGs0oq+6KXkrHgPox2f1teit15R959FYnZL101Pw/xXPfJp/ePsnx9HpbfnVX4URCuD8FkiFRZ8N+57U9sKmmJhIemFG4hdUxVwlMOsEmY5iY09Q2A6EglMqEyk0BfhULKNVGuPp4wC7BDblB4on4UBs6cyZRua+niA44gCxImIuNcbCoaE5TMgyMyUrgVpAyghlSICMhOQlDWLygREKQOYKMgCW4TIa0LlEDM/sMvx4e0x0yI9oBOmmJnhI8i0rApBY1tbZ65GvxOxfadDUF2JWnFbQ6Op8DU4no+ei1MLcqVNnrkZHlmM6NmoxHR566Hr9XY65FKrsCOpNNPGq+yHyNZi8BJcD2PE9HVyNBtPYOo1Fem08Q/ot925Desv8Ar7xdOBZVNHNgtU9DHEa4EuAWKWLwqmtTzzpP0WablFHpvViMRh01rqNbaeE1KLT19wGY9O270PU03FanB7S6P1IPVGbNDXJgVIDMvmZlIK2Qmw5wJ6nQBFhTiOqQF5QFMh07j8pG4CvKlYCaH1EKqIITJEJB9WZkCVlQFhZAlA2hDQpxLDWpXmgK84ipQLTEyiaSqlWBSnA2dSBVqQNRlrqiKs4GyqUyjiIFFCtI47pbDWMuZ11c5npZD1E+TO3F+aPF6vHq47P0cHiQKEhuLRXovU/R4P5pzzWWlswJgnd8pMQgAogSEgQrmolEmPpsrofArlksxY+BWpliJ0nh5cj4MfFlemOR1xeXJagPgytTLVI74vJmfAdARTHwOuLy0+DDQuAxG3np0RyEcB0TUccvA0GgESdnEaDiJQ2O4u2aNDKWrSAuWMBRzSRm5amzjx6spP1eveheh8fCTXyd3ej6Cq6q54T6LfVq0o/Sl7l+me7208T8N669XLcn+hvgWHR6XHFrcRh+wX1Rdq7hOU+bX6OEqhFgSw3aNsLMtF9UZGCGSorQOnh0ZNlppAOCuOlRBjQDfUDIPUbqwuNAsU6HLyCyk/B+ZHUalqcDFDUsbKWF5MXVwzLyCkhRrIU2N6tlpQGunoQa/OxsMQNjTIlTAZSrXLCqFRRJuA2TIUhE6jFOo0Fi91fEAR8P4BxxIaFYyxnWonMgzWEIyJE0EFF8zJQIe4hTAyXAOFJkJjo1QKziMjTRlRga8SVqCmJS1GzkDYyrFENUUTSgY73TzerxjlXnfeBVr4FPgaXHbMXI6a642KWKguBoIjDkWIxBposwicGy1ERTr3bSTVle/B9nP2WLtSjcFK33liEQp9pCplmNMnqzSq6olfFbLhPfFGxlAHKTUHFbT6BxknlSTfI5PaPQipDVK6PYHAHqbmemDwavsmcd8X5FWcLdh79W2PCSs4mlx/QSlNbjHSPF5RAynqWL9GEfmv2mir+iurfSXgVlxTj+kJyHU4z0f4jcrJrjYr/0QrRWsfzM3urnXAVOmdBV6O1v4bAfRet9Bkk0baKUAchvpdF63CDKeJ2HVhvgzRtrMhmQe6dt6t3gOANkTgVqhd6sVVpGtxlTcAHTLcqQrqzaVTnAr1KZdnArziVlTqQKVembOcCrWgBoMXTscn0ulaC5ZtTucVQucn0vwDlSa5a+R1473jjy47wyec4p2KcZ6j61W67Stc/Rcd7P5v63DpzXacrhlehMsWPXt8PLywKIIUQwmJiMSJsWAojoMTAbTRpyyWYMfArxHwZv2eXI+mx8CvAsQZ1xrzZHwLVNlSDLVM7zw8mazBjoFeLH0zri8lPgMQumwzo81NTHwK6Y+MjeLlkIJMFMw67cRjILQWpEqRNs01G72HFae00kDebGoSbjGCblJ2SXG/4bznyX8Ner0c/62M1u+0/X2ex+iWi5VpVLXjTSpx+tPe/CNj22XyVwOR9H/RtYahTprVv1pv8Ambb8lex1deTPwfqM+rO68P8AQ/w3hvD6fHHL8173/gpoFxDaBseV9SB6onq0GBOBmtFZSYNGSiS6fh4BpNjMhOTvJTAHIEkTEJsLGNGWCSMDriGKCUSEiJBoTZjmCYgJy3JykJkqRBOVGSgg3ETKdzIJ0kJr4fkEqPaTOQWK0cNcGVIuQCdNF1tdtfJMYq3C6uknJJptJ7m0ndX7R80v193aVaWx6cZ1KkacVOrbrJa3nZWWbXh2JGbDZyqrxCVUR1NvxJcO8qLVybFVXCjVDSzExoq/ClctxfEm2URpfrd2BVaTT3fr7/Aq7R2fCrTlTmrxkrNXavy1TTVt+nEjZ2BVOmoKU2o2SzyzNcNG7O3eNrFhInKZTeoVyVRxiGkZGASgUVqsezv/ACF16fMtuQuoNiqlwGC4asdlODQWGoESlb/dC/hCfHyu/cVIdYxC/hPJN+DCUr65Wu9oXfs0wJgthRGqAcQ4hpGMs7AU2HYi5l9S9hEuRFiZbzDKAlTETpItAOkTabKeGVty8gHh1yXkWchjgXSKiwq5LyBngIvfFPwRekEoFkg53F9D8PO96au/A53H+imD1hJx7D0TITCkNRNvGsb6LK8buNpI5baGwatN2nTku1Js+kJwZWrYLNvS8h0m3zJOHDj26CKlNn0PtjobRqr5EE+aVjisZ6JJtvJJDRt5M6RWmtT0bG+ifExvbLLsvqcxtToliKfy6Ul2pXRb2SudnREVaJs6tLsa7ytUpk2jUVcMaTa2CTTudTUps1G0qOhflpLNzTwnpZsx0al/mSd78ny8zSRqns+3NiRqwcZJWa9vM8c21saeHnllrH5stbNcLvg7H2fS80va1+R+J+hs/Hh3+Z2Fq6l65pcPXNpQqXPrYeH4zlw0c2EkAFc28hiMBhIIJUpjYSEjYGo51Zgx8StFlmJuPNl4Ngx8CtBliB0jz5RYpssxkVaTLMT0PJnFmmyxTZVpjoHTbyZLVMYhFOQcWdnmsOTHXEwQy5uOVOiSLjMLMVxsGg4g043G0abbSScr6WW9vgl2svjz2nz9iY3K9OM3b2knemUl+XfwPePQ36O5QtXq3U3dRi18lfi+Zq/RX6G3NxrYqNlvjRe+29OfC/YfQOFwSgrWX4H531/rerfHh497/wAP6n9nfs/eGz1PqMe/bpxv+4qNBRMqSMnUBy3PzVf0yIqQQKiFlGQiRuFJGQQUosCLaMrpkgmCrhKAaYBINoyK/X4ARGJjjxYyMfYKrwurXWu66drhqT3Np1E9zXMyaKuA2flScpJztZtbuyyLNw6YoRAaZDQaCyHANRCfgAvL3hKnzJUSajAly8gJW5E3MiyUDciULhtGSiZAxiGEwGagiUUDImTBJREkS4GR1D0IB6lC54ZFmnzMmg1tRnhg4plhIlUjOjatOoV3i5XjZX56ouTw7FVsMFGqyGUZ3NfKAqWdbsvtRBvOsC63Q19OvzLUKysBLBnLuJh/sC33gU6GK5a9r0XsGtN6uT7ksq/Fmuw1ZcDawWnacmi6eHjyV/F+8flIiTcGjIxJATJkWKxIKwBLkaBGER/WpNwIl2ExWhlwQjDLGExM7TbLAxbGZTEjG0FYNUwqYZ0gBUUBKA9RIsUIjAdBBxgWIYK5dMqs1yIktCzXpqJVnEqK8odhMaLGqmNjTArKkU6+HXFJ9+ps3SMlhgOXx3Q/D1fl0ou/ZY5XaXoXoT1hKVP2ryep6f1BnwcDwHa/oZrwu4SjNLctzZwe3ehuIpr16NRJ8bNo+t6mFNfj8NdWauvBl1tm3T4qr4W1/c1Z+RpNs7ChWjKE4Jpn2btXoXh6ytUowfbZXXitTh9s+gnDSd6cp03yTvH7LLrXhjKy9rHwb0n6FVcK3KN6lL6S+VHv5xX0mazA7QT4933n2Ztf9n/FK/Vzp1Vyd4v2njXTn9nqsnKaoVKM186CcoN83ZH0eH1dw7Zvzfq/hePJu8fl5dGohjKu0thYrDNqrTdl8+Cdu9rgzMNi1JXTv+uPafXw5sc/FfjPUej5OK3qxs/gtB3ApVeQZ1fPuOvKUxkGKG0zcc6fBlmJViOgbjzZRZgh9Nlemx0DpHmyWIFqBTpos0z0R5c1qkPgVoDos3HkyWYjKYmmOgd3mp0QogXGOqoq7aSW9yaSXff7i7knft9XPot/LN35TuKKGxg9yL+wej+IxemFoTrPfnknToQXCUqlRLMuXUqb7j2PoX+zfJ+vjKrqXWtCl8XS7pSd6lRdjnGPYjyc3reLi9939H3vRfZ/1fq9Xp+7w/v59o8i2DsOtiZ5MPTdRppNr+zjrrmqfJTX0VqfQvo79DUMPapVSqVmuKSjB/yr5ztxPR9jdGaOHioU4RhGOijFJJJGycuR+f8AU+u5OXtPw4/Lz/r2f0z4Z9n/AE/ovxds8/71n8u9JoU1FcL9gydcU2RJnytv1Wp/wNRGpA0lcPqzm3IKxhNwZMy0mUwXMAmwbiErjVAWiUBLQE4/rdwGLtCU+0CthHFeonG6V2uPraj6cUTUmCHWTsyV+wCSDsRJoNSaRTiHKBii/AMm1LsYmS0TAmwLYcUZJGRVjQy4MwkgJ7yUTYKxlgFAgKLCk+4gi5RDjxsDLcNmtBUoEoFIFxDSGIgFQGRJmCAFg4vQJIwLFeGGV9z702vOw6S4BzRC4fgRoidJELD9hYlADMQVZ0Ow0u3Y1VB9UvXe5vgdNB6cBdSmuSIOR6PYDEwcpVque9rR1aXcdD1hZnhE1qr95XqYewGmw+829Co+JRowVy5Fo5NHxY1MrhKYTZ9ycwqmxmcsaEkSRcJI0IMMsY2BiQdhdzIgSYQOjGxmxNAihwIaiZk+aWCDiCoknRDEuQM4gxT5XLDpAIjUsW6WMdiu4Eo1GU15XASIRNwiMoV9DGQ2BkUEDGQTkASiQ4kBIAHErV6ZbkitWZdpprpwEvC34mwUFyFtDadMU4UAamCW56pljqwso3txc9tXoLha6tVoU59rgv8AfU8n6X/sebKxLcoRq4ao/nUpbuWj0a7D3yIyKOkys8XTOWOOX5pL9XxN0g/Yo2hRvLCYuliVbSnWg4z+1Fpew8z6Qeh3a2E/t9n17b3OhHrodukbz9h+lEI/reTCrrwfevwsj04epzx/X6vkc3wn0/J7dN+c935UVMVGMsk26c182pF05eU0mW4Q5NPuafuZ+ne2eimDxKccRhMNWT/iUacvO8W3577HA7W/ZX6P19f3fTpPnQlKl/2teR7sfiEv9l8Xl+z393OfxfBcaDW9PyG04H2Xi/2INku/VV8dR5WxE5Jct7Zo8V+w5TX9ntTErkpxpzXnKLPRj67D3lj5mf2d9R7ZY18qQgWIo+j5fsS1Vu2s/GhS/AGP7E2Jv/8Ayi/6NL8D0T1vF+rx37O+rv8A+P8Azf8Ah88RRYpI+hqP7FVXjtWf+WjRX/wZsMH+xTD+82lipLjlnCH/AGxRr+sOL5Vz/wDpn1OV75cc/jv/AGfOcKT5PyYbml8pxj9aSj77H1Lhf2NNmK3WVMVX/wCZiqri/BNHT7I/Zj2LRs/gWHnJbpVIda/Oo5a9xn+s8PbG13x+yXJfzcsn0m3xlh9p05Sywl1kvo0oyqvygpHW7F9H2Pr/ANjgq8ovdOplow/1rrLd0Wfb2yeh2DoK1KhTgrfMhGH/AGpM2cacVuily0v772PPn8UzvbGdP1fS4fsl6fGfjzzy/TtjP5Xb5Hwn7NePcXOtiKWHUVdwo03UqatL+0qNpb+EOR610S/ZpwGHtUqQlXraPrMRLrHeyTyxt1cdV82mr6cj1HpFWfUzXPLu03ySv7S1Kdzx5+p5OTzldfL2foPT/DPTen/JxYy/OzdUcHsmnTSUYqyVkrWiv8q/LuGzly9xM6hLjY8lr6cx+XafL2JnIJImaCWpNtaJ6rzDp0OYyLCMba0FdhMImBqJmtQeVMxxXIFTC36MjcAxXVhrDJNtX1srOTa0vayei38PuDt22CkyiBYdOItrUAXK/eTEnIiYMKbGl2g1KduA6E+0ydXgHTFVU12AtDFHuIkiVsT3AwMJiZEMimwmSgGdWKbGICaLsSgGg0iIvUbGRlYZNC7cQ1IgV1ZKiGYUAgaiH27AKkSBUA0DYNAE5gwRgUQMTCglxdgEybBWNsy5liUwsRcyUTLEyIpdmTYK5jIDtoIrRLDQqUSDmKNbUtxmajDU2bBUzhttepMYpFCBYhIsRZQVhabH0jUSDiTdmXCymmhUkFLcY5aE2uApMlIhobHcALXIMCKDAlIOLExY6CCUVzLkMlSQYp9OQeYrSYUZdgQxinIJsG6NIzMEgUZFgFcGTCTDkAuL7AlIyDMYBJE9xkZkRQEyRUreZacivUQFZsEbJATgAOQKMBkO4ZGAZsiu46k1NBkoC5K5Y50BMabDUAWmaZShsFwuKirkwnqBac2jOvYh1BgBR3/fpYK4tMlU2GU1Li4VBsqj3CGbP2/Y1Ve0KVQVCJilvLtmxlyEwkjJI0zpT2lRzJa2V438Hmt42sWK77N5R2zupq181ekt7VrSzX0+ra253NlOV2/H3t+9s1KaIp0+L7gsuo5K6ETVtCWqFxuHCAMZBE2IuYpkNmSkQY2GmA4h095lYlRftDsS2iGzNbjJMBRMaMiiKPMBUiDlDKpcqQrJYsykLyX8A7aiIvwICZCkF0ixGUOUdAFIglRMbJbBSAGTCpVCXFARWoFpsiNMBDqdQAJRFrvv4Wt+I2oxaQEpkNmXJk0BEjAc5OYAkSmRYy4AZCJIY3oQogDIhIOKM8AJijDIx/WhMkAKMRkQkuIWBJbIkvDyITC1iQWUxINmaQNhdaY5IrVpb+Ps95Fc4qGu4lQa5mx6pC5wPP0tq0ZhUsUrmToCuqRRsI4os06pQoxRepVOBrEOCiBGN/PgMjTNiUFmCdJEymAMo8ycxlhnVgLUTFEnKS2AuI1CrDqUAlF4mQsYzEWOdHEZATGI3kKgZMFBOBKiUB2BZjOrCjAAGtRse3cRKJCgAGezCCjTCmtAF0xugjMyXIBjE1kZJ27wJyAXYjeS5BRjcCacRgqMhrsEoZoTnCmKqUw52JlVCUTIwsSGenZdzGhiiC2DWgoYqrv/AC21VtW+d+wzOgFI1EHF2136gyxkvMXOV3uIzlDetMVQBE5iwpmcOnLsFwQUWaZM3hSYpBNFjNU8bTv1e5fGJq7tdq9lrv527C1n5/rVlTF1bVKEbJ56kt/zcsJN2/m08rlusr9n+7NxEqrYCdRMWkybEEJkxMzGEEyQDYc2LRKolMOEhSQUZvtI3DWNhHsFKI2CM1fcM4A2LLjcTKkR16dgBTDVPQCK1CaZFNrgnra+uttLre1feuRXwFCcYKNSp1s7ybnkjC93dRUIOSioLRZm5PeWrmShz9gdA2ICjGxmgEqb8BblcZcCavuAWTNgN2DnMCVHQDNfciZeBkZJcAGUo+HYZMinX371bs33/APOBFyCU9eBk5AYQohRVzJRAXmJYxWYEogSRdGNERQE3MIdNcCYINMYxQZF+4xTMgoRJcSIyRiNFC4ILJoSkYgyDJciURlhU6V+L3/pBqMi+8OEr8yVEJGaqGhGJprV29pasJmQaqA6K7BFOS3ceQ9xOO2wVaCZUq0LFx02RKi2VGtlO1waeNSH1sM27FZ7HZi7ajYU8foPo4m5rMNhJLeXopiWpV7rLhMrQYxM6Sh6YzPYrRnYKVQdQbe5FwOsCpyKMQ6LESZBUWsnEByJosyMSxyYpBRqMKKsjHIlEZ2g+uBiyJoKlVCc4sixraHxqBorRQ+nIA2wZsyoYloAvMYkRUQVOoAuzBqwsXLor1wKiRNNtXXMlC2wDTCzXERDuA/fuAqSdzIonKBGXmEgJhRpA2zMBkGdVzFthi9/DFAEJMyMV2+X5g6WT3aadvEEsu1io4eRtzvZCIjTCjD9XGQgVEwiMyi1TH5LIpQZAjIkPeajKhif/MYb/wB9681C1/abOrL3v3s1VaX9bw65UcQ/NwV/abb9ff8AeUVWzEx1SAvKAsxEqJE4PtAGTMSJ6vQmETIxIdTEuDLNKJKsjHH9dgNINhU/eZddfIym9+oFR9pKfcIqTDcZf9c/122MUBdBzTeeUXd3ioq1o2Salq8zvd300a5XHvRdgUtGWJcmQwInEFPuJZAGagSixrAkwFt91iA3EFASkY1qESoagZCJLJuEAlzRjYVViosBkJjGxdiIoDFUsTIyVMC/LUByYpsyc9CKT0uAyBNOQuxkQ0O+8mNRESuHBBBRMbtzM3EOQWiRE76aPXlb26hRBcf128ybZDnd7Wffpb3jo0wIyaHqZK0FUvElRX5BEJEULSK9Rvlf9dti04lXFQb3W8dfwA10KdhtxMB1JHPTSWgkZIi5nbKHEhUtBkQhWtoo0UKxUOQ+m2TKBk21WRoONVl2VDxJVA1DZFOfkSxs6ApRKoHcZnAlUIUyXsLMWTUrKK9Zxiubdl7Svntz/AVUop/Kimrap66CX5ozA9L8JOt8Hp4inVrr5VOjepktq88o3jB/N1e9G2eprNm4KlTuqVOFO+9QiouXH1mtXrrqzaRkrG9s2CsC3xJRjXh2lTTEBFDEtAEFYiZQJt3hF0zZoMWMpsDIEmVD3qDm9oGZkgFKAKiTf/cxAJmmJlS1vd/cWpoU2Ai1gXAbJEQAXFGOQTYDkAUJBSmA3+uYudQBymg+ssVkFnCWbHKeuvgQ2DchsEmhuqkQpoU2HCYUdwc3MFzJlE245d2Mm75gRQ2/YGWRuPjITF8ht3+lvLAcWZNMiE2yZX1NxK19OmvhUG360aFT7LnGP4GySsa6lD+svjbDW3JfKqJ773+but7jaZzSFSYrMMrMruJBmYHMQ33ahqBNjCUwUSkRdCjIbDcJe+w6hElag0iYR3BXMcjLtIhsCwSjffpz1Mk/LgFK4hSghkQZADcFxIzGACkuJDS4EyRKiALXazFclx/VzE9QJFy94UqgOdfqwE2BlLuJuBlQEUZSs81t+mXl234jXIG2gPW24X8guhKWpOgF7g1JNbkn36fpBDUyUgKOq1avbW26/YClqA103bQCEAkyIyfP2AFGQcbfmK/Am4D49qBlSIpvnoZUqARFhfrkBfkFcLoakFFLiLQUdSVEpk2IuZGT5GQUQoyBb9vAFMOlOuZmIv4+4iIQbYuvEioTUYGngiyhEJDluMVpLAkg4IZGmc4yXTgOsSoBGgOUhxCuQ2TQlIJMXcxsoObQqdMJyCuTa7UK9MXGJsK1G5UnSsS912DMR1piiJlEirCkMjXKOYlV7E0NvRq3uPiajD1zYUqtzcvsmlghoOJNjomirBhAuJds3dRmMuTCKMiispUg7kSSIqAGiHuBpsclcLom4ibLUqZWre4ALkxkKSCCCnEBJBSkQ0AqcQEhqMcAFjHuJUSJoCIAvuDjAiSAlaGJmZSUmBlhc+8sKQpQLtnpBFd4SMSZjRpy0JFinURWihlFhFmFRX0FYmqyIr3mVFfffXf2G4la7CzviavNUKStx9aVR7vA2m7U1mDa+EV9+kKK4W/vHaPFaP51jaLXgdKhbmL6zsGypeBEaZja6LcbiVTV7lyLEyRDSIkuJCViJMKIfB/q5XgvyGRV/IlWLEIkSh+mHCmYzLtKGSVvwIpQuRUCw4Ux07cQHTfmNS1Mqx0AROAkZN/7iGAeW6BREZGKIGTYDClCwKQAVBcnyHyjoLjDUCvGvK9raF2S0E1aavwD67yAiGmlu23awas3rxCkkY4BdlqXmGoi+IyPLcEHFdxFtSLezt94vDUMt1q7u/rSb8eVuy5Kp9uwC+oU12hRsRdIzIOyBaMjDtGzSHT8ApcPeyWwZQNGmU0xmUykwmzOyoUQrGKQVhtkDRLDUL8dTJRsQsAzEZKmSg6VkUFHw8TEQEHOQp6hyQuf6YFKnSLEKYuktS1kMNlZQkiWYmTSaDmJIyBWLo0WibEpWMzDRpGUywbRMBo0CwUdTJEIzo0lryFyphykDJkZV50irUpmzjEGdFEixqHRFxpePI2Val2CoURWiIRZfoysRCmLV7ljNbKnUGSZXolmcjaoaJcL8iLXGJWKoY0yJvsDmQpFQOUJoxmMqbBCXYOhPn5i0jJIIOpUKkiw7IqveGay6AqEzSBkwiIGXIQM2AaWhCJuZEAoyJkwc1iQARKlYa2QAMXcKxiJbAHKQ35hsjJ7rgLUPxDW4Tjq8oRvGlKo9PVjKMd/G8rLQsrVXtbsunbxWhtm4gkrk0k1bQyCGO4cfc2MAakdPAm1vzBvdFg1uy6adfFvnOmvBU/zZtowtqabYGk8S9/x9teyCWpuYTZ0tNMmKlAc4gygZCGwcoTiRHeADViYxuFYmELEVHU93kHCPYFBBPRmW5DOsBbItxMc2HSQlxGX7iMoeW4EKXaTKT5kOBLQAS8AZvs8iZXRMr2ASZLQNIGqAEwGFfX9X8ewzJcBckSiLdhiAFyu+BEu8Odu4FwYESrdqIVQVVwye9K6Dy23ASoDLgRXaGkgJaDptAhRhqSrEzj+ZErEykvyC6uxlomD4aeAyLBnz3E09eQBNh022BMmm7F2GqJAEZsmLIGW/XMkFMKKCpSeu4KKuhifaC52/DjqEC0RlGNC5zsBDgTkJUrk5QbhMlyIk7bxqQmswbhNHQdEpSTfYXIbjLbIgsJaGXAhEMIwDLcyLEXCAxyIiyTMoGNmBJAxjv3+RBkgZRJbQLuNIy5kphXtoJkyXEpidwepMpsIkxSAkxZaSIsa6VLi2WYITOQUahVWIoZmKkq1g4Yi/gA6TITIdUJIAnEjdv8AIZBEOIQrOidDJU+Aahpr4FiUDQhxHxYM2isVUaIsg5RByGUDcxkygCiwZYKJAxxKF5dd7tb2hBRpk2/VgFOoEBEwBmYiwOYxvw9vsAaTTha71u7ezd3C6enaNkudgBfiMSApjkWCFEOCIa70Gos04Xyh+ZijZrjqMX4cQb2a7/cWI1GwUrVmnvxE/NWRtYxNR0RpXpSf0q9aX+tr3W8jctG6IIm3wMigWQBU3CrliSsJnTuYA23sbBcyIxDig1j5FCDJmg4swOxNybu5NSACXegGyiAmTJMmMEAIUEDFh5bALmhcpMsJJ7hdSiAleBEaYtrXVDGgAa13AqQdxUkwId+FmnvuCm+Kt3aob7BWTgAcdeFxdKb4rK+V/Lz3mKPDmZ+vuAKcmrNJeYduxmR8CXMBU/1chRDGKK/VvuDVKgxsagLjyJnAJA21LGoulTHJGa0VOIGUc5LgRcgymtOBjQcURO3OwAZiZEJLeROYDFTJysTDELmPVZBpmdjY17opzxJHwsCw5C5VCr8J5jI4hcSUXaMboIrxxCsTDEIsYuJ+YRiHvDjVvusBXDGUIUEMXsK9KY+Gpl3OYEkYTmAEEJmIDDE+0wlACpEuRLBkgICBcCczAFoy4TAzAY33mSpmBMCIBxYq7MpoBlybESQaAjqzFTGMmE0Br6q1Fwq+BsalK5r6+DZjIMjWLtGu7GshQaepZw9Uo2qqaGZyrSqljMUZZbyGyZzATKCkyvJlipuK+UM5BuC59iJkRIOaJO4CiMRDQAhGIwBmUB7jJMJRLAmNPvJaGyeoEoFAMxBziZkAi1xkbATsQA6w1SFRgFEsSnRDcRcBjkac7KjIBJW15a+WoTVxGLlaMvqv3MsYavoTK+GhJvVub85s3knxNX0VS+DUnzT7Las2NSSKMlAhv9IiTF3MjMxjZKijFFre9PvCssTFBSfIWnYNzydTk1vfcFKfeJUhmVB0RJgolzMbRmg8ugqEGu1jotANkNbZFDXFAKYDncAopL8SZIVJ6EQr8yll2GcVvFVB1RCKj7TS6YlfcBJdg3J23E3Ahr/YiYVwZrULERmS4imtQrsKOUiJkxFqRkNjIZnK8kMhLTt4mg1IBoX14qVZmbRcoOwyVZWKEq+gp1CNRcqYlLiKWJ7Sm5XMTCrixq5mLE9pQtxJjQuZF6NYOa0EUaBdhR01Apxptj44RlmhRQ5LUsRS+B8kR8G7zZdZ2FOttGKlGGuaW5WfDjfd7Sm9IVEz4J/tYs0u4dOAN7auVIp1ItdxupUUTTwyV7xUr9rB1aa7D6cQq8nuvd9zLlDZkZTyq8Fb1dbq/LuNXtLDVKU3GV9+j7DJvZtOA6GgmlIa2FMczBTYUJAGZuMMYEZiQYImTAJMi4JABSYJKRgGKAHVjQE+8DLEZiXIGKuwDiFGJk4mAE4hTYDZADHK5EEDFkyQDXIJxIcLIDN+rgDUpMrVKWpfiLrwIKtOpYs06hWlSIziDYxSJkjX0Melp3jnjkAypISp+A6M7oSrXKzl4TIFSMmyEHMcSWxd9QrASFbyISEQnLM/WWW3ybO9+Lvfu8gqzNWFVJu1opX7Q3IhSNRCMNUlrnik72VuPbyHuXYyt1V5qV5erfS/qu6a1W57y1muApyvzDy2F1E7O1/O33MHAQll9fR3e53Vr6a2AaohdS/0wkyGgDDpWMtppvIoxAeok5TEPpxLCq1xG0Z2hPTdCT8lctTRQ29PLRrP/hS18DccKHo3b4PR0teN/ay40it0dj/V6C49VG/kXnRFRXsSoXClEHcRZNgcQkTcgOmmNk5QJGOQWQUY9wbFKIamZrQ5UxdWI2xLZAqAQMUFJjbWi3IzOSoBJDbWinO4mRZqwRTk9RtoxzIUL8gcyGQsNpUNCYsfNCqshtNBzmZhM2xcQsFOJMZkxlzDhBcwiaYNRWDlpbt3CqrBpKJhIrTmwPhBGj6jVzIaorrEIlT5EDJwFuVgnVbIlRbAT1oLk3wLlHZ9zY08Ikrbi6TbS4fZOaSnromrcPI2kMIXKdKwU2NGyadEOMBqXLX2CoVrrdlfJ6+N+0psQSREWg8lgkDVi+FijsyFaTq9bThTjmXVZJ53OHGU1ui83BGwzMhvz3+IZTk03tBUpaa69oqccys+O/8AIZSp5UlwsFMYMfMJSJigXwGUVddhXxcMzu73LkYoXKITHs01HcNUBMZqwUGTToJoYgJMNEBxMYJFwDSImTGZEgMiw0AmTcDHEDNZDUDkuAOe4U0ZlMYAqJDiYg0gMymA5uwwAsphhgExaJnMHKEqfuAbGYuVN71buIlUa3BRbAfTBqomM0t4uWNjL5PB2ZdIB0hU6A9PUJDSbayeHa3IXGq76m6ihFTColhtXhXDhZieq3iHXfAiXu2MUhD3laFUtU0nqVnTIvUNzBQDlYBjlqQ3yIjK5Niw2Ji7+QeUhQKgowIU3ysGmgJAYpBKQFzGgCdT9d28K4MSAHZxkJCEHECzmGKoVIyHx14lZyMnI1nSWS6ip2waSL7majbtS1OT37lY1Ozn76bbZUrU6ata0IrySG1atxWFXqQ+qiHSfAMxjgDUClGwGodpjoKvzRlzMoVg0HMYS0A7mdiYyIc3wJtuJaICpzdtRs12iaYYNhaMcSI0ibma6zwxSCr7ri6k+W8ht2CgdS9ivOK3XYbqFLFVWmBYlUsT1+hrViW96sZOb5k2Nh14ej/A10FJ63JblffbsAtTmilWxFuJaeAbXEyOyl/uSijSxN395ssO9AY7MQ6EUtN6NSDKkdNzYylTTQ2y/T/IyxpnZFbDrkBHDLkXEA1YyS7V1hI8gnhewfENhjLJUWEtv9g+nhx6gTM0zukKFhtmCZJhuGpkykgc24IKy4DpajchKAXGBLYaiTJgLVNPQF00twzJxuYwMyXsRIKErGVIgEloTFi6aGoLo5IqVpliE+ZXxKfBk2aaZRHQQqLHwehWkWMjIIFRMg2yGS0RMA0+4i4uIQEtkxQDYxMDJzCTFyCAlEtGJktABYxsmRj3ATFgyIgSBjYKqK9uITRijrcApsFB2MZdM7ZlIuSialG40bS0nwCVNLhYikrByKbAzOIUmRGVwjLkTkTlMZQipLTcU5US3KmDZkZ2ozQj4Ta5s5RKGMwas+0xdmww2mi1TrqRop7NlwFRzR4s5zKt6dOkPbutDTUsforo2OD2guw6SpYfKJCRNTE5iYJG9sd2JAyDaQEnyAxIi3YFFggHHcS9wEZGOYBsKmmQxlIoJ0yIRsE0HCmUs2Fy5mt2vTvHKt7kjb5Uara80lH660K52arZUtIpclYKEwqEOXHmTJBmQuoAhtri2g7QOUhBkxjcAGiLgyYSZgDKJDYThcxUwIhMa4iHyGQAJJoi9w3MFDTcoox7OAUqYEGOyGW1aWFW8q1sMbPKKlRA1fwUXLBovOm1xMULk0KlOlbuHwpK9w5UEZ1WlgGKZM5oBUzHE1EtZNgQGMyMCptFic6WhmQNrTtJtAQe8jNftDT3/r8SIJr9f7EMQhRiRkMXiWJYbd34BOPmRwChDiVNB6simWFMVKWveF2XdGQrBsKBNndiQUiJRuYkNtaSiGFIC5UFn0IRjRluYAWMRLkFYDIINSFqVhj5k21BJA1IE25EVWRWkpsfkFUIaDsw2BSJJQLmBM5IlAuKJSAm5FjGGkBGUkwwAkjGgc4UQJzE3uTwIiAM4kSDbAaAyCMQU1YFQAlkWMkw0WDEZUiRJMOE+GnjoVmgpoY5EwDCFMmUhjuV60G9OYFhrzAsLw1HKkhtSoBk5CZMlyArMJagPKAiWGNEsjfwDVMjcDUDKkuzyK08Gnw9hbszKaZLHXqa6rhU2C8NY2kcOtRdSiY6a0pwxWluKChjb3GPCrka/EYPghrSNrSrJjjVYO6Vm9C5CsamXzZsWrhRYiMh9MbYsqYkZSbWMuaB8ArgJjIyRYJSGqQtBRNA0a/aLtKGnzl7i+mzUbYrvNT+sDTfXSIcf1+REn9wmNUJqDbIZlglIKCTMUwXImTAB0iYoxTMSRBgEkHOAtoyI6slQ5hZOQCld2V++2gD+ALkFFkBdMg7cPAsxqJrQrygFGfC400bYgCDZFQy2XOItxHqADiwFuIyFgcoVPeEpqgBOiNAlIsYlVUtRkYkyoX1CjErSFHsCcQ4bw2jK6VcgFy07CJUrg0HqxsYgQiHmCsaJJRkvAbQMgKcJ5ndLLbet/lwGE5maidJbYUWY6ZiiZaS9A0QojIxCIiBUQ5UyJUTTJLCsYqQWQBPVsYjIzMlqBGQhmJhwjxDUFCIPWdg25FjKtO1yCjBjIGBnqJqRBylh0wlGwaVFMcndEulrqyJwAywUjFuJW4BVSdu1mR1JdO4zqwByrkFcFolgS2TFaER3EoCUgWwyIRuAMUMyAwh7NBxYAUQ2jLXMvwKzUdUEsOZEYERGnoDkDF1IdoAufAxoyESx1bYFNQGSp6DHGxASkOkBk5lp1CtU3hktowPKDKAEGJhKBIC2FBEWMdMKmUCEg1SCgjLRE+0rvCcS/kGRo6DWzempWG1Jnh7GxcERKjcnSb21Ua73FqjOwxYAJ4bVF8NQSqq+8KL0K/V23DYrmTqY6TJxIsRJmQR0jI4yJsMjAxxRo3oyL0NfjKV5Rvw5dvMvyga7FS+MguwMWtvVqW8iu+ZaURU4hlNKdxVZjaMA5U+wCqQkxvU3JVELCspMUMlTMjEldETQvsLE6OgtUnuMiBUU7hhxQGRpWMlAJwMdMAaa58iYJrUd1YeQNq9rkyGxhyBlEBdwag5JESiAnKF1TCqQC9hKMzCasrDurFqgIIiwmGqBnV246lagIx1IcAojLGVV7EqIzITkATLT/YyyGzp6C2BhLRE4NaMhgFBGGQ3E5d4AsgdGkROCAmMEM6vyKyi2OpaIBsIEuIEp/7EyqBGdWDKnyGZb2D6lFiVXVO5CpFl9gUSoRCAutSZdjEPq0BShAycO8c4JCquu4D/2Q==;" parent="1" vertex="1">
          <mxGeometry x="710" y="125" width="89.97" height="120" as="geometry" />
        </mxCell>
        <mxCell id="VIiJpTWjtphFDwySmYHa-3" style="edgeStyle=orthogonalEdgeStyle;rounded=0;orthogonalLoop=1;jettySize=auto;html=1;entryX=0;entryY=0.5;entryDx=0;entryDy=0;" edge="1" parent="1" source="VIiJpTWjtphFDwySmYHa-2" target="yg5Dbc8WBimCiFoJ_i8Z-38">
          <mxGeometry relative="1" as="geometry" />
        </mxCell>
        <mxCell id="VIiJpTWjtphFDwySmYHa-2" value="" style="shape=image;verticalLabelPosition=bottom;labelBackgroundColor=default;verticalAlign=top;aspect=fixed;imageAspect=0;image=https://www.electronicwings.com/storage/PlatformSection/TopicContent/134/icon/Servo%20Motor.jpg;" vertex="1" parent="1">
          <mxGeometry x="500" y="145.48" width="106.66" height="80" as="geometry" />
        </mxCell>
        <mxCell id="VIiJpTWjtphFDwySmYHa-4" value="" style="shape=image;verticalLabelPosition=bottom;labelBackgroundColor=default;verticalAlign=top;aspect=fixed;imageAspect=0;image=https://www.upsinverter.com/wp-content/uploads/2022/08/2-21-min.jpg;" vertex="1" parent="1">
          <mxGeometry x="170" y="790" width="102.57" height="102.74" as="geometry" />
        </mxCell>
      </root>
    </mxGraphModel>
  </diagram>
</mxfile>
